<svg width="85" height="80" viewBox="0 0 85 80" fill="none" xmlns="http://www.w3.org/2000/svg">
<path fill-rule="evenodd" clip-rule="evenodd" d="M70.843 4.95211L72.622 7.29411C72.7338 7.44159 72.8154 7.60963 72.8622 7.78865C72.909 7.96766 72.9201 8.15414 72.8948 8.33745C72.8696 8.52075 72.8085 8.69728 72.715 8.85697C72.6215 9.01665 72.4975 9.15636 72.35 9.26811L70.461 10.7031C70.8071 11.6311 71.0265 12.6015 71.113 13.5881L73.263 13.8881C73.6323 13.94 73.966 14.1361 74.191 14.4336C74.4159 14.7311 74.5137 15.1056 74.463 15.4751L74.063 18.3941C74.0385 18.5775 73.9778 18.7542 73.8846 18.914C73.7913 19.0738 73.6673 19.2135 73.5198 19.3251C73.3722 19.4367 73.204 19.5179 73.0248 19.5641C72.8457 19.6103 72.6591 19.6205 72.476 19.5941L70.132 19.2681C69.718 20.1696 69.1835 21.0106 68.543 21.7681L69.862 23.4991C70.0862 23.7972 70.1831 24.172 70.1316 24.5414C70.08 24.9108 69.8842 25.2448 69.587 25.4701L67.243 27.2451C66.9452 27.4685 66.5714 27.5656 66.2025 27.5155C65.8336 27.4653 65.4994 27.2719 65.272 26.9771L63.843 25.0891C62.913 25.4352 61.9406 25.6545 60.952 25.7411L60.652 27.8911C60.6002 28.2604 60.404 28.5942 60.1065 28.8191C59.809 29.044 59.4345 29.1419 59.065 29.0911L56.146 28.6911C55.7767 28.6393 55.443 28.4431 55.218 28.1456C54.9931 27.8481 54.8953 27.4736 54.946 27.1041L55.269 24.7551C54.3702 24.34 53.5297 23.8088 52.769 23.1751L51.043 24.4911C50.7459 24.7163 50.3716 24.8145 50.0021 24.7643C49.6327 24.7141 49.2982 24.5195 49.072 24.2231L47.293 21.8811C47.0678 21.584 46.9696 21.2097 47.0198 20.8402C47.07 20.4708 47.2647 20.1363 47.561 19.9101L49.443 18.4751C49.0976 17.5469 48.8783 16.5766 48.791 15.5901L46.641 15.2901C46.4576 15.2656 46.2809 15.2049 46.1212 15.1117C45.9614 15.0184 45.8216 14.8944 45.71 14.7469C45.5985 14.5993 45.5172 14.4311 45.4711 14.2519C45.4249 14.0728 45.4147 13.8862 45.441 13.7031L45.841 10.7841C45.8939 10.4152 46.0903 10.0822 46.3875 9.85744C46.6847 9.6327 47.0587 9.53446 47.428 9.58411L49.777 9.90711C50.1921 9.00828 50.7233 8.16778 51.357 7.40711L50.043 5.68011C49.9314 5.53364 49.8499 5.3666 49.8029 5.18855C49.756 5.0105 49.7447 4.82495 49.7696 4.64252C49.7945 4.46008 49.8551 4.28435 49.948 4.12539C50.0409 3.96642 50.1643 3.82734 50.311 3.71611L52.653 1.93711C52.9502 1.71192 53.3244 1.61368 53.6939 1.66392C54.0633 1.71415 54.3978 1.90876 54.624 2.20511L56.059 4.09411C56.9866 3.74773 57.9567 3.52808 58.943 3.44111L59.243 1.29111C59.294 0.921509 59.489 0.587033 59.7855 0.360572C60.082 0.134111 60.456 0.0340214 60.826 0.0821136L63.745 0.482114C63.9281 0.506904 64.1045 0.567693 64.264 0.660977C64.4235 0.75426 64.5629 0.878193 64.6743 1.02563C64.7857 1.17307 64.8667 1.34109 64.9129 1.52001C64.959 1.69893 64.9692 1.88521 64.943 2.06811L64.62 4.41711C65.5227 4.83202 66.3658 5.36575 67.127 6.00411L68.858 4.69211C69.1549 4.46448 69.5301 4.3641 69.9011 4.41305C70.272 4.46199 70.6083 4.65625 70.836 4.95311L70.843 4.95211ZM21.243 38.5911H63.099C63.4811 38.5919 63.8592 38.6682 64.2117 38.8157C64.5642 38.9631 64.8841 39.1787 65.153 39.4501L65.16 39.4571L65.167 39.4641C65.4372 39.7336 65.6515 40.0537 65.7977 40.4062C65.9439 40.7587 66.0191 41.1365 66.019 41.5181V76.4001C66.0159 77.1733 65.7073 77.9139 65.1606 78.4607C64.6138 79.0074 63.8732 79.316 63.1 79.3191H21.243C20.8599 79.3191 20.4806 79.2432 20.1271 79.0957C19.7735 78.9483 19.4526 78.7323 19.183 78.4601L19.176 78.4531L19.169 78.4461C18.8988 78.1766 18.6845 77.8565 18.5383 77.504C18.3921 77.1516 18.3169 76.7737 18.317 76.3921V41.5031C18.3242 40.7308 18.6324 39.9917 19.176 39.4431C19.21 39.4161 19.238 39.3811 19.276 39.3541C19.8164 38.8679 20.5161 38.5965 21.243 38.5911ZM25.968 71.6401C25.6663 71.614 25.3853 71.4757 25.1806 71.2525C24.9758 71.0293 24.8623 70.7375 24.8623 70.4346C24.8623 70.1318 24.9758 69.8399 25.1806 69.6167C25.3853 69.3935 25.6663 69.2552 25.968 69.2291H38.643C38.9447 69.2566 39.2252 69.3958 39.4294 69.6195C39.6337 69.8432 39.7469 70.1352 39.7469 70.4381C39.7469 70.741 39.6337 71.033 39.4294 71.2567C39.2252 71.4804 38.9447 71.6197 38.643 71.6471H25.97V71.6401H25.968ZM43.859 71.6401C43.5552 71.6169 43.2713 71.4799 43.0641 71.2564C42.857 71.0328 42.7419 70.7393 42.7419 70.4346C42.7419 70.1299 42.857 69.8364 43.0641 69.6129C43.2713 69.3894 43.5552 69.2523 43.859 69.2291H57.529C57.8327 69.2538 58.1159 69.3919 58.3224 69.6159C58.5289 69.8399 58.6436 70.1334 58.6436 70.4381C58.6436 70.7428 58.5289 71.0363 58.3224 71.2603C58.1159 71.4843 57.8327 71.6224 57.529 71.6471H43.862V71.6401H43.859ZM25.153 52.0871H58.504V65.1431H25.153V52.0871ZM63.387 49.0441C63.2936 49.058 63.1994 49.065 63.105 49.0651H21.243C21.1486 49.0652 21.0543 49.0582 20.961 49.0441V76.3931C20.9641 76.4662 20.9908 76.5364 21.037 76.5931L21.044 76.6001C21.0706 76.6255 21.102 76.6453 21.1363 76.6584C21.1707 76.6714 21.2073 76.6775 21.244 76.6761H63.099C63.1362 76.6767 63.173 76.6697 63.2074 76.6556C63.2418 76.6415 63.2729 76.6206 63.299 76.5941C63.3518 76.5403 63.3834 76.4693 63.388 76.3941V49.0441H63.387ZM37.787 42.3551C38.1628 42.3551 38.5301 42.4665 38.8426 42.6753C39.155 42.8841 39.3986 43.1808 39.5424 43.528C39.6862 43.8752 39.7238 44.2572 39.6505 44.6258C39.5772 44.9944 39.3962 45.3329 39.1305 45.5986C38.8648 45.8643 38.5262 46.0453 38.1577 46.1186C37.7891 46.1919 37.4071 46.1543 37.0599 46.0105C36.7127 45.8667 36.416 45.6232 36.2072 45.3107C35.9984 44.9982 35.887 44.6309 35.887 44.2551C35.887 43.7512 36.0872 43.2679 36.4435 42.9116C36.7998 42.5553 37.2831 42.3551 37.787 42.3551ZM31.159 42.3551C31.5348 42.3551 31.9021 42.4665 32.2146 42.6753C32.5271 42.8841 32.7706 43.1808 32.9144 43.528C33.0582 43.8752 33.0958 44.2572 33.0225 44.6258C32.9492 44.9944 32.7682 45.3329 32.5025 45.5986C32.2368 45.8643 31.8982 46.0453 31.5297 46.1186C31.1611 46.1919 30.7791 46.1543 30.4319 46.0105C30.0847 45.8667 29.788 45.6232 29.5792 45.3107C29.3704 44.9982 29.259 44.6309 29.259 44.2551C29.2584 44.0054 29.307 43.7581 29.4023 43.5272C29.4975 43.2964 29.6375 43.0867 29.814 42.9101C29.9906 42.7336 30.2003 42.5937 30.4311 42.4984C30.6619 42.4032 30.9093 42.3545 31.159 42.3551ZM24.538 42.3551C24.9138 42.3551 25.2811 42.4665 25.5936 42.6753C25.906 42.8841 26.1496 43.1808 26.2934 43.528C26.4372 43.8752 26.4748 44.2572 26.4015 44.6258C26.3282 44.9944 26.1472 45.3329 25.8815 45.5986C25.6158 45.8643 25.2772 46.0453 24.9087 46.1186C24.5401 46.1919 24.1581 46.1543 23.8109 46.0105C23.4637 45.8667 23.167 45.6232 22.9582 45.3107C22.7494 44.9982 22.638 44.6309 22.638 44.2551C22.6374 44.0054 22.686 43.7581 22.7813 43.5272C22.8765 43.2964 23.0165 43.0867 23.193 42.9101C23.3696 42.7336 23.5793 42.5937 23.8101 42.4984C24.0409 42.4032 24.2883 42.3545 24.538 42.3551ZM41.815 7.93911C40.5549 7.84289 39.2888 7.85661 38.031 7.98011C34.131 8.33398 30.4112 9.78611 27.303 12.1681C23.3861 15.2641 20.7594 19.7052 19.933 24.6291L19.603 26.3531L17.886 26.6531C16.348 26.9086 14.839 27.3156 13.381 27.8681C12.1695 28.3278 11.0224 28.9419 9.96801 29.6951C9.20148 30.2474 8.50708 30.8934 7.90101 31.6181C6.14747 33.7665 5.21713 36.4696 5.27701 39.2421C5.30578 42.0868 6.21397 44.853 7.87701 47.1611C8.50135 48.0259 9.23022 48.8102 10.047 49.4961C10.9003 50.2038 11.8567 50.7771 12.883 51.1961C13.5001 51.4491 14.1352 51.6557 14.783 51.8141V56.9681C13.4741 56.7372 12.1938 56.3664 10.964 55.8621C9.46189 55.2473 8.0627 54.4062 6.81501 53.3681C5.67609 52.4181 4.66083 51.3289 3.79301 50.1261C1.51521 46.9569 0.275041 43.1599 0.243012 39.2571C0.17229 35.2922 1.51629 31.4318 4.03401 28.3681C4.90717 27.3216 5.90873 26.3892 7.01501 25.5931C8.42371 24.5875 9.95638 23.7681 11.575 23.1551C12.8048 22.6807 14.0671 22.2951 15.352 22.0011C16.6544 16.5166 19.7838 11.6384 24.226 8.16811C28.0911 5.20762 32.7155 3.40198 37.564 2.96011C40.0924 2.71848 42.6421 2.83191 45.139 3.29711C45.0818 3.52327 45.0384 3.7527 45.009 3.98411L45.002 4.02511C44.9516 4.41663 44.9356 4.8118 44.954 5.20611C44.4271 5.41199 43.9321 5.6918 43.484 6.03711L43.463 6.05111C42.7898 6.56091 42.2288 7.20395 41.815 7.94011V7.93911ZM78.154 21.1261C78.539 21.4761 78.909 21.8401 79.273 22.2321C80.0411 23.0647 80.7373 23.9609 81.354 24.9111C83.6016 28.6152 84.7387 32.8868 84.63 37.2181C84.6916 41.438 83.4307 45.5713 81.024 49.0381C79.4184 51.1367 77.3895 52.8743 75.069 54.1381C73.3223 55.0973 71.4786 55.8683 69.569 56.4381V51.1121C70.6092 50.7301 71.6193 50.2708 72.591 49.7381C74.2994 48.8224 75.795 47.556 76.98 46.0221C78.7412 43.4162 79.6497 40.3276 79.58 37.1831C79.6832 33.8405 78.826 30.5384 77.11 27.6681C76.6545 26.9622 76.1375 26.298 75.565 25.6831C75.352 25.4561 75.139 25.2431 74.919 25.0371C74.9555 24.6904 74.9646 24.3413 74.946 23.9931C75.4729 23.7872 75.9679 23.5074 76.416 23.1621L76.437 23.1481C77.1474 22.6059 77.733 21.9174 78.154 21.1291V21.1261ZM60.736 8.86011C61.8702 9.01501 62.933 9.50275 63.7901 10.2617C64.6471 11.0206 65.2598 12.0166 65.5508 13.1237C65.8417 14.2309 65.7978 15.3995 65.4247 16.4817C65.0515 17.5639 64.3658 18.5111 63.4543 19.2036C62.5428 19.8962 61.4464 20.3028 60.3038 20.3722C59.1611 20.4416 58.0236 20.1707 57.0349 19.5936C56.0463 19.0165 55.251 18.1592 54.7496 17.1301C54.2482 16.101 54.0632 14.9463 54.218 13.8121C54.3203 13.0588 54.5701 12.333 54.9532 11.6762C55.3362 11.0195 55.845 10.4447 56.4504 9.9848C57.0557 9.52487 57.7459 9.1888 58.4812 8.99582C59.2166 8.80283 59.9828 8.75672 60.736 8.86011Z" fill="#071B41"/>
</svg>
