<svg width="68" height="65" viewBox="0 0 68 65" fill="none" xmlns="http://www.w3.org/2000/svg">
<path fill-rule="evenodd" clip-rule="evenodd" d="M22.851 45.0692C22.4563 45.0265 22.094 44.8314 21.8411 44.5254C21.5882 44.2194 21.4647 43.8268 21.497 43.4312C21.4759 43.2343 21.4944 43.0352 21.5514 42.8456C21.6084 42.6559 21.7028 42.4796 21.829 42.327C21.9551 42.1744 22.1105 42.0485 22.2861 41.9569C22.4616 41.8652 22.6536 41.8096 22.851 41.7932H29.565C29.9603 41.8345 30.3235 42.0292 30.5767 42.3355C30.8299 42.6418 30.9528 43.0352 30.919 43.4312C30.9401 43.6281 30.9216 43.8272 30.8645 44.0168C30.8075 44.2065 30.7132 44.3828 30.587 44.5354C30.4608 44.688 30.3054 44.8139 30.1299 44.9056C29.9544 44.9972 29.7623 45.0529 29.565 45.0692H22.851ZM14.38 12.1692C14.4649 12.083 14.566 12.0145 14.6776 11.9678C14.7892 11.921 14.909 11.8969 15.03 11.8969C15.151 11.8969 15.2708 11.921 15.3823 11.9678C15.4939 12.0145 15.5951 12.083 15.68 12.1692C15.8521 12.3438 15.9486 12.5791 15.9486 12.8242C15.9486 13.0693 15.8521 13.3046 15.68 13.4792L14.119 15.0622L15.685 16.6532C15.8567 16.826 15.9531 17.0596 15.9531 17.3032C15.9531 17.5468 15.8567 17.7805 15.685 17.9532C15.6002 18.0385 15.4994 18.1063 15.3884 18.1525C15.2773 18.1987 15.1583 18.2225 15.038 18.2225C14.9177 18.2225 14.7986 18.1987 14.6876 18.1525C14.5766 18.1063 14.4757 18.0385 14.391 17.9532L12.835 16.3702L11.274 17.9532C11.1891 18.0394 11.0879 18.1079 10.9763 18.1547C10.8648 18.2014 10.745 18.2255 10.624 18.2255C10.503 18.2255 10.3832 18.2014 10.2716 18.1547C10.16 18.1079 10.0589 18.0394 9.97399 17.9532C9.80189 17.7786 9.70541 17.5433 9.70541 17.2982C9.70541 17.0531 9.80189 16.8178 9.97399 16.6432L11.541 15.0552L9.97999 13.4652C9.80971 13.2917 9.71432 13.0583 9.71432 12.8152C9.71432 12.5721 9.80971 12.3387 9.97999 12.1652C10.0647 12.0799 10.1656 12.0122 10.2766 11.966C10.3876 11.9198 10.5067 11.896 10.627 11.896C10.7473 11.896 10.8663 11.9198 10.9774 11.966C11.0884 12.0122 11.1892 12.0799 11.274 12.1652L12.83 13.7482L14.391 12.1652L14.38 12.1692ZM43.408 51.4692C45.318 57.0912 53.308 57.3042 55.108 51.4692C57.22 53.3692 61.347 53.7562 63.678 55.0502C67.27 57.0422 67.095 58.9202 67.543 62.4902C67.5372 62.7757 67.4742 63.057 67.3578 63.3178C67.2414 63.5785 67.074 63.8132 66.8654 64.0081C66.6567 64.203 66.4112 64.3542 66.1432 64.4526C65.8752 64.551 65.5902 64.5948 65.305 64.5812H33.222C32.9368 64.5941 32.6519 64.5498 32.384 64.4509C32.1162 64.352 31.8708 64.2006 31.6624 64.0054C31.4539 63.8103 31.2866 63.5755 31.1703 63.3148C31.054 63.054 30.991 62.7727 30.985 62.4872C31.378 59.3592 31.864 56.7232 34.855 55.0472C37.59 53.5132 41.099 53.5622 43.408 51.4772V51.4692ZM41.77 41.1502C41.5296 41.1608 41.2961 41.2342 41.093 41.3632C40.987 41.4235 40.9043 41.5175 40.858 41.6302C40.7969 41.7691 40.7708 41.9209 40.782 42.0722C40.8892 42.8211 41.184 43.5308 41.639 44.1352L43.439 47.0122C44.1044 48.1712 44.9172 49.2391 45.857 50.1892C46.7716 51.0743 47.9963 51.566 49.269 51.5592C49.9351 51.5749 50.5976 51.4569 51.2173 51.2121C51.837 50.9674 52.4014 50.6008 52.877 50.1342C53.8517 49.1146 54.6885 47.9715 55.366 46.7342L57.397 43.3882C57.812 42.4492 57.943 41.8712 57.797 41.5882C57.721 41.4302 57.442 41.3752 56.984 41.3972C56.6237 41.4851 56.2463 41.4737 55.892 41.3642L56.692 39.0442C53.4016 39.159 50.1575 38.243 47.413 36.4242C46.42 35.7912 46.119 35.0652 45.131 35.1362C44.4136 35.2632 43.7568 35.6193 43.259 36.1512C42.7244 36.7573 42.3492 37.4869 42.167 38.2742L42.767 41.1672C42.4308 41.2564 42.0772 41.2564 41.741 41.1672L41.77 41.1502ZM57.96 40.3152C58.1593 40.368 58.3446 40.4637 58.503 40.5957C58.6615 40.7277 58.7891 40.8927 58.877 41.0792C59.183 41.6902 59.057 42.6022 58.484 43.9062L58.451 43.9772L56.388 47.3772C55.6577 48.7053 54.7522 49.9292 53.696 51.0162C53.1109 51.5887 52.4176 52.0389 51.6567 52.3408C50.8958 52.6426 50.0824 52.7899 49.264 52.7742C47.6933 52.7815 46.1817 52.1763 45.05 51.0872C44.0287 50.0678 43.1477 48.917 42.43 47.6652L40.623 44.7942C40.0426 44.0152 39.6839 43.0936 39.585 42.1272C39.5694 41.789 39.6348 41.452 39.776 41.1442C39.9157 40.8328 40.1434 40.569 40.431 40.3852C40.5794 40.2869 40.7388 40.2064 40.906 40.1452C40.789 38.7346 40.7653 37.3179 40.835 35.9042C40.9319 34.8576 41.2804 33.85 41.8506 32.9671C42.4208 32.0841 43.1959 31.3521 44.11 30.8332C44.624 30.5056 45.1735 30.2372 45.748 30.0332C49.225 28.7722 53.826 29.4872 56.294 32.1332C57.3855 33.3572 58.0117 34.9261 58.063 36.5652L57.948 40.3262L57.96 40.3152ZM24.117 61.3362C24.3495 61.3024 24.5866 61.3191 24.8122 61.3851C25.0377 61.451 25.2465 61.5648 25.4242 61.7185C25.6019 61.8723 25.7444 62.0625 25.8421 62.2762C25.9398 62.49 25.9904 62.7222 25.9904 62.9572C25.9904 63.1922 25.9398 63.4245 25.8421 63.6382C25.7444 63.8519 25.6019 64.0421 25.4242 64.1959C25.2465 64.3496 25.0377 64.4634 24.8122 64.5293C24.5866 64.5953 24.3495 64.612 24.117 64.5782H4.29199C3.78941 64.5759 3.29223 64.4744 2.82892 64.2797C2.36561 64.0849 1.94527 63.8007 1.59199 63.4432C1.22768 63.0893 0.93905 62.6652 0.743603 62.1964C0.548156 61.7276 0.449965 61.2241 0.454987 60.7162V4.43721C0.457434 3.93518 0.560661 3.43875 0.758547 2.97736C0.956433 2.51597 1.24495 2.09902 1.60699 1.75121C1.95611 1.39237 2.37355 1.10707 2.83469 0.912139C3.29583 0.717206 3.79134 0.616585 4.29199 0.616211L51.185 0.616211C51.6876 0.618533 52.1847 0.719981 52.6481 0.914742C53.1114 1.1095 53.5317 1.39375 53.885 1.75121C54.251 2.09715 54.5436 2.51327 54.7453 2.97475C54.947 3.43622 55.0537 3.9336 55.059 4.43721V21.5602C55.0928 21.7928 55.0761 22.0299 55.0101 22.2554C54.9441 22.481 54.8304 22.6897 54.6767 22.8674C54.5229 23.0451 54.3327 23.1876 54.119 23.2853C53.9052 23.383 53.673 23.4336 53.438 23.4336C53.203 23.4336 52.9707 23.383 52.757 23.2853C52.5433 23.1876 52.3531 23.0451 52.1993 22.8674C52.0456 22.6897 51.9318 22.481 51.8659 22.2554C51.7999 22.0299 51.7832 21.7928 51.817 21.5602V4.43721C51.8185 4.36625 51.8047 4.2958 51.7763 4.23072C51.748 4.16564 51.7059 4.10746 51.653 4.06021C51.6022 4.00113 51.5381 3.955 51.4659 3.92561C51.3937 3.89622 51.3156 3.88443 51.238 3.89121H4.29199C4.22103 3.88967 4.15058 3.90354 4.0855 3.93185C4.02041 3.96016 3.96224 4.00225 3.91499 4.05521C3.85594 4.09861 3.80928 4.1567 3.77963 4.22371C3.74998 4.29072 3.73838 4.36433 3.74599 4.43721V60.8552C3.74599 61 3.80351 61.1389 3.90591 61.2413C4.0083 61.3437 4.14718 61.4012 4.29199 61.4012L24.092 61.3462L24.117 61.3362ZM10.64 40.6862H16.426C16.4989 40.6813 16.5721 40.6921 16.6406 40.7178C16.709 40.7436 16.7712 40.7836 16.8229 40.8353C16.8746 40.887 16.9146 40.9492 16.9403 41.0176C16.9661 41.0861 16.9769 41.1593 16.972 41.2322V46.2102C16.9769 46.2832 16.9661 46.3563 16.9403 46.4248C16.9146 46.4932 16.8746 46.5554 16.8229 46.6071C16.7712 46.6588 16.709 46.6989 16.6406 46.7246C16.5721 46.7503 16.4989 46.7611 16.426 46.7562H10.64C10.567 46.7611 10.4939 46.7503 10.4254 46.7246C10.357 46.6989 10.2948 46.6588 10.2431 46.6071C10.1914 46.5554 10.1513 46.4932 10.1256 46.4248C10.0999 46.3563 10.0891 46.2832 10.094 46.2102V41.2272C10.0891 41.1543 10.0999 41.0811 10.1256 41.0126C10.1513 40.9442 10.1914 40.882 10.2431 40.8303C10.2948 40.7786 10.357 40.7386 10.4254 40.7129C10.4939 40.6871 10.567 40.6763 10.64 40.6812V40.6862ZM22.851 16.4452C22.4557 16.404 22.0924 16.2092 21.8392 15.9029C21.586 15.5966 21.4631 15.2032 21.497 14.8072C21.4759 14.6103 21.4944 14.4112 21.5514 14.2216C21.6084 14.0319 21.7028 13.8556 21.829 13.703C21.9551 13.5504 22.1105 13.4245 22.2861 13.3329C22.4616 13.2412 22.6536 13.1856 22.851 13.1692H41.622C42.0166 13.2119 42.379 13.4071 42.6319 13.713C42.8848 14.019 43.0083 14.4116 42.976 14.8072C42.9971 15.0041 42.9785 15.2032 42.9215 15.3928C42.8645 15.5825 42.7702 15.7588 42.644 15.9114C42.5178 16.064 42.3624 16.1899 42.1869 16.2816C42.0114 16.3732 41.8193 16.4289 41.622 16.4452H22.851ZM12.316 31.6582C12.1248 31.7894 11.8919 31.8452 11.662 31.8149C11.4322 31.7847 11.2217 31.6704 11.071 31.4942L10.962 31.3852L9.23199 29.6002C9.14827 29.4986 9.08595 29.3811 9.04877 29.2548C9.01159 29.1285 9.00032 28.996 9.01564 28.8653C9.03096 28.7345 9.07255 28.6082 9.13791 28.4939C9.20327 28.3796 9.29105 28.2797 9.39599 28.2002C9.5978 28.0079 9.86301 27.8962 10.1416 27.8861C10.4201 27.8759 10.6927 27.9681 10.908 28.1452L11.825 29.1172L14.854 26.6832C14.963 26.6109 15.0857 26.562 15.2146 26.5393C15.3434 26.5167 15.4755 26.5209 15.6026 26.5517C15.7297 26.5825 15.8491 26.6392 15.9532 26.7183C16.0574 26.7973 16.1441 26.8971 16.208 27.0112C16.3891 27.2283 16.4789 27.5072 16.4586 27.7892C16.4383 28.0712 16.3094 28.3343 16.099 28.5232L12.316 31.6582ZM21.939 30.2502C21.5445 30.2089 21.1818 30.0148 20.9287 29.7094C20.6756 29.4039 20.5522 29.0115 20.585 28.6162C20.5631 28.4192 20.581 28.2197 20.6377 28.0298C20.6944 27.8398 20.7887 27.6632 20.915 27.5104C21.0413 27.3575 21.197 27.2317 21.3729 27.1403C21.5488 27.0489 21.7413 26.9937 21.939 26.9782H36.95C37.3447 27.0197 37.7073 27.2147 37.9594 27.5211C38.2116 27.8276 38.3332 28.2209 38.298 28.6162C38.3199 28.8128 38.3022 29.0118 38.2459 29.2014C38.1896 29.391 38.0958 29.5673 37.9701 29.7201C37.8444 29.8728 37.6894 29.9987 37.5142 30.0905C37.3389 30.1822 37.1471 30.2379 36.95 30.2542L21.939 30.2502Z" fill="#071B41"/>
</svg>
