<svg width="81" height="68" viewBox="0 0 81 68" fill="none" xmlns="http://www.w3.org/2000/svg">
<path fill-rule="evenodd" clip-rule="evenodd" d="M29.0508 25.3412H35.7238V12.4082H45.2708V25.3402H52.1888L40.6288 37.5532L29.0508 25.3412Z" fill="#071B41"/>
<path fill-rule="evenodd" clip-rule="evenodd" d="M2.50082 0.680664H78.3778C78.9559 0.681721 79.5101 0.911844 79.9189 1.32063C80.3276 1.72942 80.5578 2.28355 80.5588 2.86166V53.1287C80.5578 53.7068 80.3276 54.2609 79.9189 54.6697C79.5101 55.0785 78.9559 55.3086 78.3778 55.3097H2.50082C1.92271 55.3086 1.36858 55.0785 0.959792 54.6697C0.551004 54.2609 0.320882 53.7068 0.319824 53.1287L0.319824 2.86166C0.320882 2.28355 0.551004 1.72942 0.959792 1.32063C1.36858 0.911844 1.92271 0.681721 2.50082 0.680664V0.680664ZM30.5468 58.3197H50.3318C50.3838 61.7417 51.7948 64.8107 55.6148 67.2197H25.2638C28.3198 65.0057 30.5638 62.3197 30.5468 58.3197ZM5.10582 3.79566H75.7788C76.2893 3.79672 76.7786 3.99998 77.1395 4.36094C77.5005 4.72191 77.7038 5.21118 77.7048 5.72166V45.0577C77.7019 45.5673 77.498 46.0552 77.1373 46.4153C76.7767 46.7754 76.2885 46.9786 75.7788 46.9807H5.10582C4.59618 46.9786 4.10797 46.7754 3.74731 46.4153C3.38666 46.0552 3.18272 45.5673 3.17982 45.0577V5.72166C3.17982 5.21086 3.38274 4.72097 3.74394 4.35978C4.10513 3.99858 4.59502 3.79566 5.10582 3.79566Z" fill="#071B41"/>
</svg>
