<svg width="66" height="80" viewBox="0 0 66 80" fill="none" xmlns="http://www.w3.org/2000/svg">
<path d="M6.95101 37.2859C7.02001 25.0789 7.08901 14.9709 7.15801 2.81194C7.15937 2.42571 7.29345 2.05169 7.53778 1.75256C7.7821 1.45343 8.12183 1.24738 8.50001 1.16894C16.8 -0.564058 27.7 1.26894 33.089 8.43094C38.769 1.45694 49.244 -0.0840576 57.665 1.14694C58.067 1.20486 58.4347 1.40563 58.7008 1.71249C58.9669 2.01935 59.1136 2.41178 59.114 2.81794C59.114 2.81794 59.114 34.6019 59.114 37.4359C59.1141 37.6581 59.0705 37.8781 58.9856 38.0834C58.9007 38.2886 58.7761 38.4752 58.6191 38.6323C58.462 38.7894 58.2756 38.9141 58.0704 38.9991C57.8651 39.0842 57.6452 39.1279 57.423 39.1279C57.291 39.1277 57.1595 39.1123 57.031 39.0819C53.3903 38.6145 49.6937 38.8505 46.142 39.7769L46.114 42.9679C46.5947 42.9539 47.075 42.9486 47.555 42.9519C52.4248 43.0297 57.2711 43.6445 62.006 44.7849C62.006 31.9759 62.006 21.2639 62.006 8.45794H63.699C64.1476 8.45821 64.5777 8.63659 64.8948 8.95387C65.2119 9.27115 65.39 9.70137 65.39 10.1499V46.9969C65.3897 47.2658 65.3254 47.5307 65.2023 47.7697C65.0793 48.0087 64.901 48.2149 64.6823 48.3713C64.4637 48.5277 64.2109 48.6298 63.945 48.669C63.679 48.7082 63.4075 48.6835 63.153 48.5969C59.063 47.4776 54.8741 46.7578 50.645 46.4479C50.9007 46.8561 51.0979 47.2981 51.231 47.7609H53.399C53.4845 47.7607 53.5698 47.7704 53.653 47.7899C55.603 48.1029 56.512 49.4649 56.908 51.2009C57.0038 51.1745 57.1027 51.161 57.202 51.1609H58.724C58.8096 51.161 58.8948 51.1711 58.978 51.1909C63.167 51.8609 63.106 57.2559 63.066 60.7759C63.066 60.8939 63.066 61.0049 63.066 61.6259L63.154 65.5259C63.1562 65.5673 63.1562 65.6086 63.154 65.6499C62.967 69.4499 61.246 72.4119 59.474 75.4669L59.324 75.7289C58.6615 76.9626 57.7302 78.0316 56.599 78.8569C55.5759 79.5759 54.3574 79.9646 53.107 79.9709H53.007H39.922C39.3042 79.9939 38.6916 79.8504 38.1482 79.5556C37.6048 79.2608 37.1506 78.8254 36.833 78.2949C36.152 77.1432 35.7356 75.8544 35.614 74.5219L27.352 62.0219C26.7026 61.1511 26.1497 60.2122 25.703 59.2219C25.3117 58.3816 25.0681 57.48 24.983 56.5569C24.8949 55.6721 25.0261 54.7791 25.365 53.9569C25.6892 53.1969 26.3 52.5954 27.065 52.2829C27.7718 52.0128 28.5423 51.9561 29.281 52.1199C30.2731 52.3361 31.1974 52.7909 31.974 53.4449C32.655 54.0069 33.766 54.9199 34.829 55.7889L35.768 56.5559L35.814 48.3369C35.1953 48.5663 34.5767 48.8176 33.958 49.0909C33.6712 49.2742 33.3379 49.3716 32.9975 49.3716C32.6571 49.3716 32.3239 49.2742 32.037 49.0909C27.7621 47.2033 23.1307 46.2586 18.458 46.3209C13.1809 46.4361 7.93801 47.2012 2.84801 48.5989C2.59352 48.6848 2.32227 48.7088 2.05665 48.6691C1.79103 48.6294 1.53867 48.527 1.32041 48.3705C1.10216 48.214 0.924271 48.0078 0.801442 47.769C0.678613 47.5301 0.614368 47.2655 0.614014 46.9969L0.614014 10.1489C0.614014 9.70037 0.79214 9.27015 1.10924 8.95287C1.42633 8.63559 1.85644 8.45721 2.30501 8.45694H3.99701V44.7839C8.73197 43.6435 13.5783 43.0288 18.448 42.9509C22.5142 42.9021 26.5596 43.539 30.414 44.8349C27.9771 42.8604 25.1974 41.3516 22.214 40.3839C17.8442 39.1704 13.2935 38.7427 8.77401 39.1209C8.5528 39.1392 8.33016 39.1136 8.11882 39.0458C7.90747 38.9779 7.71156 38.8691 7.54228 38.7256C7.37299 38.582 7.23364 38.4065 7.13219 38.2091C7.03074 38.0116 6.96918 37.7962 6.95101 37.5749C6.94259 37.4791 6.94259 37.3818 6.95101 37.2859ZM57.165 53.3769C57.211 54.5539 57.142 55.7699 57.08 56.8769C57.043 57.5319 57.009 58.1389 57.009 58.6949C57.0135 58.843 56.9881 58.9905 56.9345 59.1287C56.8809 59.2668 56.8001 59.3928 56.697 59.4991C56.5938 59.6055 56.4703 59.69 56.3338 59.7477C56.1974 59.8055 56.0507 59.8352 55.9025 59.8352C55.7543 59.8352 55.6077 59.8055 55.4712 59.7477C55.3347 59.69 55.2113 59.6055 55.1081 59.4991C55.0049 59.3928 54.9241 59.2668 54.8705 59.1287C54.8169 58.9905 54.7916 58.843 54.796 58.6949C54.796 58.1689 54.835 57.4889 54.876 56.7559C55.031 54.0119 55.238 50.3439 53.322 49.9809H51.592C51.65 51.294 51.6293 52.6094 51.53 53.9199C51.493 54.5749 51.459 55.1819 51.459 55.7379C51.459 56.0315 51.3424 56.3131 51.1348 56.5207C50.9272 56.7283 50.6456 56.8449 50.352 56.8449C50.0584 56.8449 49.7769 56.7283 49.5692 56.5207C49.3616 56.3131 49.245 56.0315 49.245 55.7379C49.245 55.2119 49.284 54.5319 49.325 53.7989C49.48 51.0559 49.687 47.3869 47.77 47.0239H46.319C46.2373 47.0239 46.1558 47.0148 46.076 46.9969L46.026 52.7069C46.0249 52.8514 45.9953 52.9942 45.939 53.1272C45.8827 53.2603 45.8008 53.3809 45.6978 53.4823C45.5949 53.5836 45.473 53.6637 45.3391 53.718C45.2052 53.7722 45.062 53.7996 44.9175 53.7984C44.7731 53.7973 44.6302 53.7678 44.4972 53.7115C44.3642 53.6551 44.2435 53.5732 44.1422 53.4702C44.0408 53.3673 43.9607 53.2454 43.9065 53.1115C43.8522 52.9777 43.8249 52.8344 43.826 52.6899L43.943 39.3809V39.2929C43.943 37.3669 43.158 36.1529 42.154 35.6459C41.7963 35.4633 41.4007 35.3671 40.999 35.3649C40.5994 35.3655 40.2057 35.4608 39.85 35.6429C38.856 36.1479 38.081 37.3669 38.081 39.3429L37.963 61.3999C37.9624 61.5444 37.9334 61.6873 37.8776 61.8206C37.8217 61.9538 37.7402 62.0747 37.6376 62.1764C37.5351 62.2782 37.4135 62.3587 37.2798 62.4134C37.1461 62.4682 37.003 62.496 36.8585 62.4954C36.7141 62.4949 36.5711 62.4658 36.4379 62.41C36.3047 62.3542 36.1837 62.2726 36.082 62.1701C35.9803 62.0675 35.8998 61.9459 35.845 61.8122C35.7903 61.6786 35.7624 61.5354 35.763 61.3909L35.774 59.3579C35.7085 59.3242 35.6465 59.284 35.589 59.2379C34.873 58.6639 34.1597 58.0866 33.449 57.5059C32.4923 56.7239 31.5377 55.9396 30.585 55.1529C30.0938 54.733 29.5081 54.4386 28.878 54.2949C28.5599 54.2166 28.226 54.2311 27.916 54.3369C27.6794 54.4394 27.4926 54.6308 27.396 54.8699C27.2084 55.3647 27.1426 55.8974 27.204 56.4229C27.2723 57.0872 27.4529 57.7351 27.738 58.3389C28.1176 59.1773 28.587 59.9719 29.138 60.7089C29.1624 60.741 29.1851 60.7744 29.206 60.8089L37.606 73.5269C37.7016 73.6709 37.7619 73.8353 37.782 74.0069C37.8522 75.0841 38.1595 76.1324 38.682 77.0769C38.8053 77.2935 38.9847 77.4728 39.2014 77.596C39.418 77.7192 39.6638 77.7817 39.913 77.7769H39.939H53.005H53.097C53.9025 77.7685 54.6864 77.5156 55.345 77.0519C56.2005 76.4113 56.9027 75.5884 57.401 74.6429L57.56 74.3719C59.193 71.5559 60.778 68.8239 60.945 65.5779L60.861 61.8139C60.8531 61.7603 60.8491 61.7062 60.849 61.6519L60.86 60.7689C60.891 58.0149 60.94 53.7969 58.649 53.3849H57.165V53.3769ZM45.623 36.4269C48.9289 35.6308 52.3347 35.3296 55.729 35.5329V4.31494C48.269 3.61494 39.021 5.09094 34.717 11.9469V41.6119C35.0937 41.3606 35.473 41.1139 35.855 40.8719L35.863 39.3329C35.863 36.4059 37.168 34.5169 38.842 33.6659C39.5088 33.3275 40.2463 33.152 40.994 33.1539C41.7407 33.1549 42.4767 33.331 43.143 33.6679C44.2767 34.2567 45.158 35.2371 45.623 36.4269ZM54.512 64.8269C54.512 64.5872 54.6073 64.3573 54.7768 64.1877C54.9463 64.0182 55.1763 63.9229 55.416 63.9229C55.6558 63.9229 55.8857 64.0182 56.0552 64.1877C56.2248 64.3573 56.32 64.5872 56.32 64.8269V68.9609C56.32 69.2007 56.2248 69.4306 56.0552 69.6002C55.8857 69.7697 55.6558 69.8649 55.416 69.8649C55.1763 69.8649 54.9463 69.7697 54.7768 69.6002C54.6073 69.4306 54.512 69.2007 54.512 68.9609V64.8269ZM49.17 63.0009C49.17 62.7612 49.2653 62.5313 49.4348 62.3617C49.6043 62.1922 49.8343 62.0969 50.074 62.0969C50.3138 62.0969 50.5437 62.1922 50.7132 62.3617C50.8828 62.5313 50.978 62.7612 50.978 63.0009V68.9609C50.978 69.2007 50.8828 69.4306 50.7132 69.6002C50.5437 69.7697 50.3138 69.8649 50.074 69.8649C49.8343 69.8649 49.6043 69.7697 49.4348 69.6002C49.2653 69.4306 49.17 69.2007 49.17 68.9609V63.0009ZM31.336 41.2869V11.8969C27.365 4.89694 17.87 3.18594 10.52 4.23594L10.33 35.6359C14.692 35.4776 19.0522 35.9951 23.256 37.1699C26.1489 38.1093 28.8756 39.4987 31.336 41.2869Z" fill="#071B41"/>
</svg>
