<svg width="66" height="65" viewBox="0 0 66 65" fill="none" xmlns="http://www.w3.org/2000/svg">
<path fill-rule="evenodd" clip-rule="evenodd" d="M23.039 33.7601C22.6166 33.6879 22.2334 33.4686 21.9571 33.141C21.6808 32.8134 21.5292 32.3987 21.5292 31.9701C21.5292 31.5416 21.6808 31.1269 21.9571 30.7993C22.2334 30.4717 22.6166 30.2524 23.039 30.1801H42.929C43.3514 30.2524 43.7347 30.4717 44.011 30.7993C44.2873 31.1269 44.4388 31.5416 44.4388 31.9701C44.4388 32.3987 44.2873 32.8134 44.011 33.141C43.7347 33.4686 43.3514 33.6879 42.929 33.7601H23.039ZM55.839 33.7071V36.0861C55.8391 36.1853 55.804 36.2813 55.7399 36.3569C55.6758 36.4326 55.5869 36.483 55.489 36.4991C55.2953 36.5118 55.1035 36.5453 54.917 36.5991C54.5589 36.6679 54.2053 36.758 53.858 36.8691C53.2061 37.0724 52.5833 37.3591 52.005 37.7221C51.7326 37.8925 51.4726 38.082 51.227 38.2891C50.9868 38.489 50.7618 38.7066 50.554 38.9401C50.3407 39.1755 50.1458 39.4269 49.971 39.6921C49.2512 40.7923 48.882 42.0848 48.912 43.3991C48.9116 43.7759 48.931 44.1524 48.97 44.5271C49.0109 44.8696 49.0727 45.2092 49.155 45.5441C49.235 45.8497 49.3376 46.1488 49.462 46.4391C49.578 46.7103 49.7179 46.9707 49.88 47.2171L49.912 47.2651C50.2468 47.7589 50.6418 48.2091 51.088 48.6051C51.3224 48.821 51.5681 49.0243 51.824 49.2141C52.0884 49.4048 52.3624 49.5817 52.645 49.7441C53.222 50.0561 53.884 50.4381 54.477 50.7031L55.488 51.1801L56.988 51.8421C57.242 51.9691 57.454 52.0751 57.703 52.2131L58.015 52.4201C58.105 52.4841 58.184 52.5471 58.253 52.6051C58.325 52.6688 58.3918 52.738 58.453 52.8121L58.601 53.0031C58.6605 53.09 58.7121 53.182 58.755 53.2781C58.7897 53.3496 58.8181 53.4238 58.84 53.5001C58.8714 53.5919 58.8962 53.6858 58.914 53.7811C58.9365 53.8966 58.9505 54.0136 58.956 54.1311V54.7661C58.9334 54.9236 58.9 55.0793 58.856 55.2321C58.8102 55.374 58.7499 55.5107 58.676 55.6401C58.5911 55.7769 58.4859 55.9 58.364 56.0051L58.184 56.1371C58.0323 56.2251 57.8681 56.2895 57.697 56.3281C57.3332 56.4285 56.9517 56.4466 56.58 56.3811C56.2445 56.3266 55.9216 56.2117 55.627 56.0421C55.5575 55.9986 55.4907 55.9508 55.427 55.8991L55.227 55.7241C55.1635 55.6621 55.105 55.5953 55.052 55.5241C54.9959 55.4515 54.9444 55.3753 54.898 55.2961C54.85 55.2111 54.798 55.1161 54.755 55.0261C54.7125 54.9347 54.6755 54.8409 54.644 54.7451C54.6036 54.6398 54.5702 54.5319 54.544 54.4221C54.5141 54.2965 54.491 54.1693 54.475 54.0411C54.475 53.9141 54.443 53.7711 54.433 53.6231V53.1571C54.4327 53.1262 54.4264 53.0956 54.4143 53.0671C54.4021 53.0386 54.3845 53.0128 54.3624 52.9912C54.3403 52.9695 54.3141 52.9525 54.2854 52.941C54.2567 52.9295 54.226 52.9237 54.195 52.9241H48.241C48.1794 52.9245 48.1204 52.9493 48.077 52.9931C48.0548 53.0142 48.0372 53.0397 48.0254 53.0679C48.0135 53.0961 48.0076 53.1265 48.008 53.1571C47.999 53.5354 48.015 53.9139 48.056 54.2901C48.104 54.6401 48.141 54.9901 48.204 55.3491C48.2663 55.665 48.3495 55.9763 48.453 56.2811C48.546 56.5687 48.6575 56.85 48.787 57.1231L48.819 57.1871C48.9444 57.45 49.0861 57.7048 49.243 57.9501C49.3976 58.188 49.5645 58.4177 49.743 58.6381C49.9175 58.8523 50.1049 59.0557 50.304 59.2471C50.4924 59.4366 50.6928 59.6136 50.904 59.7771L50.952 59.8141C51.1665 59.9724 51.3891 60.1192 51.619 60.2541C51.852 60.3971 52.09 60.5241 52.339 60.6461C52.588 60.7681 52.832 60.8631 53.091 60.9641C53.35 61.0651 53.621 61.1391 53.869 61.2131C54.117 61.2871 54.287 61.3191 54.494 61.3611C54.701 61.4031 54.928 61.4511 55.129 61.4831C55.2264 61.4982 55.3153 61.5476 55.3795 61.6224C55.4437 61.6972 55.479 61.7925 55.479 61.8911V64.1681C55.4958 64.3845 55.5611 64.5944 55.67 64.7821C55.712 64.8611 55.67 64.9251 55.718 64.9251H58.466C58.4974 64.9258 58.5287 64.9201 58.5579 64.9084C58.5871 64.8967 58.6136 64.8792 58.6358 64.8569C58.6581 64.8347 58.6756 64.8082 58.6873 64.779C58.699 64.7498 58.7047 64.7186 58.704 64.6871V61.9011C58.7038 61.8034 58.7383 61.7088 58.8013 61.6341C58.8642 61.5594 58.9517 61.5095 59.048 61.4931L59.398 61.4351C59.7556 61.3671 60.1094 61.2806 60.458 61.1761C61.1051 60.9765 61.7269 60.7027 62.311 60.3601C62.5753 60.2036 62.8267 60.0263 63.063 59.8301C63.3068 59.6325 63.5351 59.4166 63.746 59.1841C63.9605 58.9498 64.1555 58.6983 64.329 58.4321C64.5092 58.1698 64.6651 57.8917 64.795 57.6011C64.9283 57.306 65.0399 57.0015 65.129 56.6901C65.2187 56.3618 65.2855 56.0277 65.329 55.6901C65.3738 55.3389 65.3969 54.9852 65.398 54.6311C65.399 54.2579 65.3776 53.8849 65.334 53.5141C65.2917 53.1735 65.2279 52.8358 65.143 52.5031C65.061 52.1893 64.953 51.8829 64.82 51.5871C64.6986 51.3136 64.5534 51.0513 64.386 50.8031C64.224 50.5559 64.047 50.3188 63.856 50.0931C63.6543 49.8612 63.4385 49.6418 63.21 49.4361C62.984 49.2311 62.747 49.0385 62.5 48.8591C62.246 48.6741 61.97 48.4941 61.7 48.3291H61.658C61.377 48.1651 61.081 47.9951 60.763 47.7991C60.445 47.6031 60.18 47.4811 59.831 47.3071C59.482 47.1331 59.19 46.9841 58.867 46.8301C58.337 46.5971 57.85 46.3691 57.347 46.1201L56.939 45.8981L56.595 45.6981C56.4118 45.5765 56.2349 45.4457 56.065 45.3061C55.9231 45.1771 55.7954 45.0333 55.684 44.8771C55.634 44.8114 55.5914 44.7403 55.557 44.6651C55.5229 44.5929 55.4929 44.5187 55.467 44.4431C55.4399 44.3668 55.4168 44.289 55.398 44.2101C55.3801 44.1193 55.3678 44.0275 55.361 43.9351V43.3861C55.3837 43.2175 55.4171 43.0505 55.461 42.8861L55.546 42.6421C55.5728 42.5702 55.6063 42.5009 55.646 42.4351C55.6844 42.3697 55.7286 42.3078 55.778 42.2501C55.8778 42.1255 55.9958 42.0166 56.128 41.9271C56.1894 41.8878 56.2532 41.8524 56.319 41.8211L56.547 41.7471C56.639 41.7213 56.733 41.7036 56.828 41.6941C56.9303 41.6889 57.0327 41.6889 57.135 41.6941C57.2692 41.6935 57.4032 41.7059 57.535 41.7311C57.6546 41.7532 57.7718 41.7867 57.885 41.8311H57.911C58.0263 41.8795 58.1363 41.9398 58.239 42.0111C58.3474 42.0815 58.448 42.1633 58.539 42.2551L58.558 42.2861C58.663 42.397 58.7522 42.5219 58.823 42.6571C58.8898 42.7952 58.9447 42.9387 58.987 43.0861V43.1391C59.0433 43.3581 59.0824 43.5811 59.104 43.8061C59.104 44.0391 59.141 44.3061 59.146 44.5901C59.1455 44.646 59.1642 44.7004 59.199 44.7441C59.2424 44.7879 59.3014 44.8127 59.363 44.8131H65.305C65.336 44.8129 65.3665 44.8065 65.395 44.7944C65.4235 44.7823 65.4493 44.7647 65.471 44.7425C65.4926 44.7204 65.5097 44.6943 65.5212 44.6655C65.5327 44.6368 65.5384 44.6061 65.538 44.5751C65.5395 44.1741 65.5164 43.7734 65.469 43.3751C65.4257 42.999 65.3589 42.6259 65.269 42.2581C65.1853 41.912 65.0774 41.5721 64.946 41.2411C64.8203 40.9269 64.6715 40.6224 64.501 40.3301L64.464 40.2611C64.2899 39.967 64.0951 39.6856 63.881 39.4191C63.6729 39.1548 63.4446 38.907 63.198 38.6781C62.9576 38.3935 62.6936 38.1296 62.409 37.8891C62.125 37.6921 61.8276 37.515 61.519 37.3591C60.8868 37.0408 60.2183 36.8007 59.528 36.6441H59.411C59.3147 36.6278 59.2272 36.5779 59.1643 36.5032C59.1013 36.4285 59.0668 36.3338 59.067 36.2361V33.7441C59.0667 33.6884 59.0481 33.6343 59.014 33.5901C58.9919 33.5678 58.9656 33.5503 58.9365 33.5384C58.9075 33.5265 58.8764 33.5207 58.845 33.5211H56.058C55.9949 33.5214 55.9343 33.5461 55.889 33.5901C55.8452 33.6335 55.8204 33.6925 55.82 33.7541L55.839 33.7071ZM41.404 60.0631C41.651 60.0447 41.8991 60.0774 42.1329 60.1593C42.3667 60.2411 42.581 60.3703 42.7626 60.5388C42.9441 60.7073 43.0889 60.9114 43.1879 61.1384C43.287 61.3654 43.3381 61.6105 43.3381 61.8581C43.3381 62.1058 43.287 62.3508 43.1879 62.5778C43.0889 62.8049 42.9441 63.009 42.7626 63.1775C42.581 63.346 42.3667 63.4752 42.1329 63.557C41.8991 63.6389 41.651 63.6716 41.404 63.6531H4.63601C3.52811 63.6531 2.46557 63.2131 1.68207 62.4298C0.898571 61.6465 0.458273 60.584 0.458008 59.4761L0.458008 4.46413C0.458008 3.35606 0.898189 2.29337 1.68172 1.50984C2.46524 0.726314 3.52793 0.286133 4.63601 0.286133L55.946 0.286133C57.0541 0.286133 58.1168 0.726314 58.9003 1.50984C59.6838 2.29337 60.124 3.35606 60.124 4.46413V24.2861C60.1425 24.5331 60.1097 24.7813 60.0279 25.015C59.946 25.2488 59.8168 25.4631 59.6483 25.6447C59.4799 25.8262 59.2757 25.971 59.0487 26.0701C58.8217 26.1691 58.5767 26.2202 58.329 26.2202C58.0813 26.2202 57.8363 26.1691 57.6093 26.0701C57.3823 25.971 57.1782 25.8262 57.0097 25.6447C56.8412 25.4631 56.712 25.2488 56.6301 25.015C56.5483 24.7813 56.5156 24.5331 56.534 24.2861V4.46413C56.5325 4.30875 56.4696 4.16027 56.359 4.05113C56.2491 3.9416 56.1011 3.87888 55.946 3.87613H4.63601C4.4806 3.87897 4.33172 3.93916 4.21801 4.04513C4.11291 4.1594 4.05286 4.30793 4.04901 4.46313V59.4701C4.04901 59.6261 4.11096 59.7756 4.22123 59.8859C4.3315 59.9962 4.48106 60.0581 4.63701 60.0581H41.404V60.0631ZM23.039 46.9301C22.6168 46.8481 22.2362 46.6218 21.9626 46.2899C21.689 45.958 21.5393 45.5413 21.5393 45.1111C21.5393 44.681 21.689 44.2643 21.9626 43.9324C22.2362 43.6005 22.6168 43.3742 23.039 43.2921H38.677C39.1038 43.3686 39.49 43.5928 39.7683 43.9253C40.0465 44.2578 40.1989 44.6776 40.1989 45.1111C40.1989 45.5447 40.0465 45.9645 39.7683 46.297C39.49 46.6295 39.1038 46.8536 38.677 46.9301H23.039ZM23.039 20.6211C22.6026 20.5785 22.2005 20.3657 21.9197 20.0289C21.639 19.692 21.5022 19.2581 21.539 18.8211C21.5037 18.3855 21.6412 17.9535 21.9219 17.6185C22.2026 17.2836 22.6039 17.0725 23.039 17.0311H42.929C43.3605 17.0779 43.7568 17.291 44.0337 17.6253C44.3106 17.9595 44.4463 18.3885 44.412 18.8211C44.4503 19.2557 44.3163 19.688 44.0389 20.0247C43.7615 20.3614 43.3629 20.5756 42.929 20.6211H23.039ZM14.412 42.6511C14.8309 42.6511 15.2404 42.7754 15.5887 43.0081C15.937 43.2408 16.2085 43.5716 16.3688 43.9586C16.5291 44.3456 16.571 44.7715 16.4893 45.1823C16.4076 45.5932 16.2059 45.9706 15.9097 46.2668C15.6135 46.563 15.2361 46.7647 14.8252 46.8464C14.4144 46.9282 13.9885 46.8862 13.6015 46.7259C13.2145 46.5656 12.8837 46.2941 12.651 45.9458C12.4182 45.5975 12.294 45.188 12.294 44.7691C12.294 44.2074 12.5172 43.6687 12.9144 43.2715C13.3116 42.8743 13.8503 42.6511 14.412 42.6511ZM14.412 29.6821C14.8309 29.6821 15.2404 29.8064 15.5887 30.0391C15.937 30.2718 16.2085 30.6026 16.3688 30.9896C16.5291 31.3766 16.571 31.8025 16.4893 32.2133C16.4076 32.6242 16.2059 33.0016 15.9097 33.2978C15.6135 33.594 15.2361 33.7957 14.8252 33.8774C14.4144 33.9592 13.9885 33.9172 13.6015 33.7569C13.2145 33.5966 12.8837 33.3251 12.651 32.9768C12.4182 32.6285 12.294 32.219 12.294 31.8001C12.2951 31.2391 12.5187 30.7014 12.9158 30.3051C13.3129 29.9087 13.851 29.6861 14.412 29.6861V29.6821ZM14.412 16.7181C14.8309 16.7181 15.2404 16.8424 15.5887 17.0751C15.937 17.3078 16.2085 17.6386 16.3688 18.0256C16.5291 18.4126 16.571 18.8385 16.4893 19.2493C16.4076 19.6602 16.2059 20.0376 15.9097 20.3338C15.6135 20.63 15.2361 20.8317 14.8252 20.9134C14.4144 20.9952 13.9885 20.9532 13.6015 20.7929C13.2145 20.6326 12.8837 20.3611 12.651 20.0128C12.4182 19.6645 12.294 19.255 12.294 18.8361C12.294 18.2744 12.5172 17.7357 12.9144 17.3385C13.3116 16.9413 13.8503 16.7181 14.412 16.7181Z" fill="#071B41"/>
</svg>
