<svg width="85" height="62" viewBox="0 0 85 62" fill="none" xmlns="http://www.w3.org/2000/svg">
<path fill-rule="evenodd" clip-rule="evenodd" d="M55.148 55.0861C55.148 58.7491 49.471 61.7291 42.476 61.7291C35.481 61.7291 29.814 58.7491 29.814 55.0861C29.8234 54.3835 30.0235 53.6967 30.393 53.0991C32.007 55.7991 36.808 57.7551 42.479 57.7551C46.232 57.7551 52.461 56.6441 54.572 53.0991C54.9438 53.6957 55.1441 54.3831 55.151 55.0861H55.148ZM16.739 37.9991L16.587 39.6481L10.379 39.1031C10.8944 39.7627 11.2571 40.5284 11.441 41.3451L9.94101 41.2141C9.79918 40.6877 9.5656 40.1904 9.25101 39.7451C8.94477 39.2399 8.49593 38.8367 7.96101 38.5861L8.09201 37.3101L16.739 37.9991ZM25.093 55.1831C25.093 58.7911 19.499 61.7291 12.607 61.7291C5.71501 61.7291 0.114014 58.7911 0.114014 55.1831C0.121405 54.4898 0.31966 53.812 0.687014 53.2241C2.27401 55.8801 7.01301 57.8111 12.607 57.8111C16.298 57.8111 22.437 56.7111 24.52 53.2241C24.8867 53.8123 25.0849 54.4899 25.093 55.1831ZM12.793 35.6401C18.367 35.6401 22.864 37.4681 22.864 39.6621C22.864 41.8561 18.27 43.6911 12.606 43.6911C6.94201 43.6911 2.34201 41.8831 2.34201 39.6591C2.34201 37.4351 6.79101 35.6791 12.331 35.6371L12.793 35.6401ZM12.752 34.3021C19.574 34.3021 25.093 37.2611 25.093 40.8481C25.093 44.4351 19.499 47.3941 12.607 47.3941C5.71501 47.3941 0.114014 44.4591 0.114014 40.8481C0.114014 37.2371 5.63301 34.3291 12.462 34.3021H12.752ZM25.093 48.1471C25.093 51.7551 19.499 54.6931 12.607 54.6931C5.71501 54.6931 0.114014 51.7591 0.114014 48.1471C0.118149 47.4874 0.301706 46.8414 0.645014 46.2781C2.18301 48.9611 6.94501 50.9341 12.607 50.9341C16.307 50.9341 22.534 49.8231 24.562 46.2641C24.9009 46.8344 25.084 47.4837 25.093 48.1471ZM4.94301 32.6811L27.928 9.06808C33.028 14.0681 37.979 20.1051 43.028 25.1001L61.446 6.59908L55.514 0.673082L74.229 0.059082L73.401 18.4981L67.282 12.4341C63.198 16.5731 53.541 25.6921 49.457 29.7761C44.263 34.9431 41.821 35.0391 36.675 29.8761L27.928 20.1591L17.222 32.6531C13.1587 31.9458 9.00302 31.9553 4.94301 32.6811ZM76.343 25.1901L76.205 26.7151L70.479 26.2151C70.9541 26.8241 71.2887 27.5306 71.459 28.2841L70.079 28.1671C69.9506 27.6756 69.7407 27.2092 69.458 26.7871C69.1711 26.3237 68.757 25.9527 68.265 25.7181L68.41 24.5041L76.384 25.1941L76.343 25.1901ZM84.804 48.4591C84.804 52.0741 79.21 55.0121 72.311 55.0121C65.412 55.0121 59.825 52.0791 59.825 48.4591C59.8352 47.7672 60.0306 47.0907 60.391 46.5001C61.991 49.1631 66.724 51.1001 72.318 51.1001C75.995 51.1001 82.155 50.0001 84.273 46.5001C84.6387 47.0888 84.8368 47.7661 84.846 48.4591H84.804ZM84.873 41.6441C84.873 45.2591 79.279 48.1901 72.387 48.1901C65.495 48.1901 59.894 45.2591 59.894 41.6491C59.9025 40.956 60.1007 40.2785 60.467 39.6901C62.054 42.3531 66.793 44.2771 72.387 44.2771C76.078 44.2771 82.217 43.1871 84.3 39.6901C84.6667 40.2783 84.8649 40.9559 84.873 41.6491V41.6441ZM72.58 22.1331C78.154 22.1331 82.651 23.9681 82.651 26.1621C82.651 28.3561 78.057 30.1841 72.393 30.1841C66.729 30.1841 62.128 28.3421 62.128 26.1351C62.128 23.9281 66.577 22.1351 72.117 22.1351L72.58 22.1331ZM72.546 20.7531C79.368 20.7531 84.887 23.7191 84.887 27.3061C84.887 30.8931 79.285 33.8591 72.394 33.8591C65.503 33.8591 59.901 30.9201 59.901 27.3131C59.901 23.7061 65.42 20.7871 72.249 20.7601L72.546 20.7531ZM84.887 34.5991C84.887 38.2141 79.293 41.1451 72.401 41.1451C65.509 41.1451 59.908 38.2131 59.908 34.5991C59.9099 33.9369 60.0935 33.288 60.439 32.7231C61.977 35.4131 66.739 37.3861 72.401 37.3861C76.101 37.3861 82.328 36.2751 84.356 32.7231C84.6949 33.2909 84.878 33.9379 84.887 34.5991ZM84.814 55.1691C84.814 58.7771 79.22 61.7151 72.321 61.7151C65.422 61.7151 59.839 58.7771 59.839 55.1691C59.8471 54.4769 60.0427 53.7999 60.405 53.2101C61.998 55.8661 66.731 57.7971 72.325 57.7971C76.025 57.7971 82.162 56.6971 84.245 53.2101C84.6103 53.7987 84.8071 54.4763 84.814 55.1691ZM47.063 37.2341L46.914 38.8821L40.706 38.3371C41.2213 38.9968 41.584 39.7625 41.768 40.5791L40.268 40.4481C40.1269 39.9214 39.8933 39.424 39.578 38.9791C39.2685 38.473 38.8162 38.0698 38.278 37.8201L38.402 36.4821L41.244 36.7301C41.849 36.8616 42.467 36.924 43.086 36.9161H43.321L47.046 37.2401L47.063 37.2341ZM48.056 35.2891C50.967 36.0131 52.885 37.2891 52.885 38.7381C52.885 40.9941 48.222 42.8221 42.469 42.8221C36.716 42.8221 32.06 40.9871 32.06 38.7381C32.06 37.1581 34.343 35.7921 37.682 35.1101C37.247 34.8101 36.806 34.4891 36.364 34.1241C32.453 35.2551 29.804 37.4351 29.804 39.9391C29.804 43.6091 35.474 46.5821 42.469 46.5821C49.464 46.5821 55.141 43.6091 55.141 39.9391C55.141 37.6001 52.83 35.5391 49.341 34.3581C48.9 34.7031 48.472 35.0131 48.041 35.2891H48.056ZM55.148 47.6591C55.148 51.3291 49.471 54.3021 42.476 54.3021C35.481 54.3021 29.814 51.3271 29.814 47.6591C29.8174 46.9896 30.0008 46.3333 30.345 45.7591C31.911 48.5181 36.745 50.4981 42.479 50.4981C46.232 50.4981 52.557 49.3671 54.62 45.7591C54.9576 46.3362 55.1405 46.9906 55.151 47.6591H55.148Z" fill="#071B41"/>
</svg>
