<svg width="76" height="56" viewBox="0 0 76 56" fill="none" xmlns="http://www.w3.org/2000/svg">
<path fill-rule="evenodd" clip-rule="evenodd" d="M5.44299 0H70.558C71.9095 0.00369472 73.2045 0.542201 74.1601 1.49784C75.1158 2.45347 75.6543 3.74853 75.658 5.1V50.834C75.6543 52.1855 75.1158 53.4805 74.1601 54.4362C73.2045 55.3918 71.9095 55.9303 70.558 55.934H5.44299C4.09152 55.9303 2.79646 55.3918 1.84082 54.4362C0.885188 53.4805 0.346682 52.1855 0.342987 50.834L0.342987 5.1C0.346682 3.74853 0.885188 2.45347 1.84082 1.49784C2.79646 0.542201 4.09152 0.00369472 5.44299 0V0ZM31.024 38.886C31.2285 39.0616 31.3962 39.2759 31.5174 39.5167C31.6386 39.7575 31.7109 40.0198 31.73 40.2887C31.7492 40.5576 31.7149 40.8276 31.6292 41.0831C31.5434 41.3386 31.4078 41.5746 31.2303 41.7774C31.0528 41.9803 30.8368 42.1459 30.5949 42.2648C30.353 42.3837 30.0899 42.4534 29.8209 42.47C29.5518 42.4866 29.2822 42.4497 29.0275 42.3615C28.7728 42.2733 28.5381 42.1355 28.337 41.956L20.581 35.162C20.174 34.8053 19.9253 34.3015 19.8895 33.7615C19.8536 33.2215 20.0337 32.6894 20.39 32.282C20.4522 32.211 20.519 32.1442 20.59 32.082L28.336 25.295C28.7455 24.9555 29.2713 24.7892 29.8016 24.8316C30.3318 24.8741 30.8245 25.1218 31.1748 25.5222C31.5251 25.9225 31.7052 26.4438 31.6769 26.9749C31.6485 27.5061 31.4139 28.0052 31.023 28.366L25.023 33.626L31.023 38.886H31.024ZM47.662 41.956C47.4609 42.1355 47.2262 42.2733 46.9715 42.3615C46.7168 42.4497 46.4471 42.4866 46.1781 42.47C45.9091 42.4534 45.646 42.3837 45.4041 42.2648C45.1622 42.1459 44.9462 41.9803 44.7687 41.7774C44.5912 41.5746 44.4556 41.3386 44.3698 41.0831C44.284 40.8276 44.2498 40.5576 44.2689 40.2887C44.2881 40.0198 44.3604 39.7575 44.4816 39.5167C44.6028 39.2759 44.7705 39.0616 44.975 38.886L50.975 33.626L44.975 28.366C44.5841 28.0052 44.3495 27.5061 44.3211 26.9749C44.2928 26.4438 44.4729 25.9225 44.8232 25.5222C45.1734 25.1218 45.6662 24.8741 46.1964 24.8316C46.7267 24.7892 47.2525 24.9555 47.662 25.295L55.408 32.082C55.479 32.1442 55.5458 32.211 55.608 32.282C55.9643 32.6894 56.1443 33.2215 56.1085 33.7615C56.0727 34.3015 55.824 34.8053 55.417 35.162L47.662 41.956ZM37.962 23.67C38.0853 23.1421 38.4133 22.6848 38.8738 22.3987C39.3343 22.1126 39.8896 22.0212 40.4175 22.1445C40.9454 22.2678 41.4027 22.5958 41.6888 23.0563C41.9749 23.5168 42.0663 24.0721 41.943 24.6L37.511 43.58C37.3881 44.108 37.0604 44.5656 36.6001 44.8521C36.1398 45.1386 35.5845 45.2304 35.0565 45.1075C34.5284 44.9846 34.0709 44.6569 33.7844 44.1966C33.4979 43.7363 33.4061 43.181 33.529 42.653L37.961 23.67H37.962ZM3.58399 14.27V51.331C3.58333 51.5165 3.61937 51.7003 3.69005 51.8717C3.76072 52.0432 3.86463 52.199 3.99579 52.3302C4.12694 52.4614 4.28275 52.5653 4.45424 52.6359C4.62573 52.7066 4.80951 52.7427 4.99499 52.742H71.215C71.4005 52.7427 71.5843 52.7066 71.7557 52.6359C71.9272 52.5653 72.083 52.4614 72.2142 52.3302C72.3453 52.199 72.4492 52.0432 72.5199 51.8717C72.5906 51.7003 72.6266 51.5165 72.626 51.331V14.276L3.58399 14.27ZM65.705 5.731C66.203 5.731 66.6898 5.87868 67.1039 6.15536C67.518 6.43204 67.8407 6.8253 68.0313 7.2854C68.2219 7.74551 68.2718 8.25179 68.1746 8.74024C68.0774 9.22868 67.8376 9.67735 67.4855 10.0295C67.1333 10.3816 66.6847 10.6215 66.1962 10.7186C65.7078 10.8158 65.2015 10.7659 64.7414 10.5753C64.2813 10.3847 63.888 10.062 63.6113 9.64793C63.3347 9.23384 63.187 8.74701 63.187 8.249C63.187 7.58118 63.4523 6.94072 63.9245 6.4685C64.3967 5.99629 65.0372 5.731 65.705 5.731ZM48.637 5.731C49.135 5.7308 49.622 5.87831 50.0362 6.15487C50.4504 6.43143 50.7733 6.82462 50.964 7.28471C51.1548 7.7448 51.2048 8.25111 51.1077 8.73962C51.0107 9.22813 50.7709 9.67689 50.4188 10.0291C50.0667 10.3814 49.6181 10.6213 49.1296 10.7185C48.6411 10.8158 48.1348 10.766 47.6746 10.5754C47.2145 10.3849 46.8211 10.0621 46.5444 9.64803C46.2677 9.23392 46.12 8.74706 46.12 8.249C46.12 7.58136 46.3851 6.94105 46.8571 6.46886C47.3291 5.99667 47.9693 5.73127 48.637 5.731ZM57.172 5.731C57.67 5.731 58.1568 5.87868 58.5709 6.15536C58.985 6.43204 59.3077 6.8253 59.4983 7.2854C59.6889 7.74551 59.7388 8.25179 59.6416 8.74024C59.5444 9.22868 59.3046 9.67735 58.9525 10.0295C58.6003 10.3816 58.1517 10.6215 57.6632 10.7186C57.1748 10.8158 56.6685 10.7659 56.2084 10.5753C55.7483 10.3847 55.355 10.062 55.0783 9.64793C54.8017 9.23384 54.654 8.74701 54.654 8.249C54.6543 7.58127 54.9196 6.94096 55.3918 6.4688C55.8639 5.99664 56.5043 5.73127 57.172 5.731Z" fill="#071B41"/>
</svg>
