<svg width="83" height="70" viewBox="0 0 83 70" fill="none" xmlns="http://www.w3.org/2000/svg">
<path fill-rule="evenodd" clip-rule="evenodd" d="M2.33303 0.655273H80.548C81.1437 0.65712 81.7144 0.894555 82.1356 1.31574C82.5567 1.73692 82.7942 2.30763 82.796 2.90327V54.7323C82.7942 55.3279 82.5567 55.8986 82.1356 56.3198C81.7144 56.741 81.1437 56.9784 80.548 56.9803H2.33303C1.73514 56.9784 1.16246 56.7392 0.740906 56.3152C0.319352 55.8912 0.0834363 55.3172 0.08503 54.7193V2.89027C0.0902902 2.29689 0.329231 1.7295 0.750046 1.31112C1.17086 0.892739 1.73963 0.657092 2.33303 0.655273ZM8.58003 16.2783H14.395C14.463 16.2798 14.5299 16.2949 14.592 16.3225C14.654 16.3502 14.71 16.39 14.7565 16.4395C14.803 16.489 14.8393 16.5473 14.863 16.611C14.8868 16.6746 14.8977 16.7424 14.895 16.8103V18.7623C14.8919 18.896 14.8366 19.0231 14.7409 19.1166C14.6452 19.21 14.5168 19.2623 14.383 19.2623H8.58303C8.44929 19.2623 8.32085 19.21 8.22517 19.1166C8.12949 19.0231 8.07416 18.896 8.07103 18.7623V16.8093C8.07416 16.6756 8.12949 16.5484 8.22517 16.455C8.32085 16.3615 8.44929 16.3092 8.58303 16.3093L8.58003 16.2783ZM8.58003 32.6783H28.934C29.0678 32.6782 29.1962 32.7305 29.2919 32.824C29.3876 32.9174 29.4429 33.0446 29.446 33.1783V35.1653C29.4429 35.299 29.3876 35.4261 29.2919 35.5196C29.1962 35.613 29.0678 35.6653 28.934 35.6653H8.58003C8.44629 35.6653 8.31785 35.613 8.22217 35.5196C8.12649 35.4261 8.07116 35.299 8.06803 35.1653V33.1863C8.06987 33.0517 8.12462 32.9233 8.22044 32.8288C8.31626 32.7342 8.44544 32.6813 8.58003 32.6813V32.6783ZM8.58003 24.3253H21.185C21.3203 24.3268 21.4497 24.3813 21.5453 24.477C21.641 24.5726 21.6955 24.702 21.697 24.8373V26.8163C21.6924 26.9495 21.6366 27.0758 21.5413 27.1689C21.4459 27.262 21.3183 27.3148 21.185 27.3163H8.58003C8.44629 27.3163 8.31785 27.264 8.22217 27.1706C8.12649 27.0771 8.07116 26.95 8.06803 26.8163V24.8403C8.06803 24.7045 8.12197 24.5743 8.21799 24.4782C8.31401 24.3822 8.44424 24.3283 8.58003 24.3283V24.3253ZM8.58003 41.0253H37.658C37.7917 41.0284 37.9189 41.0837 38.0123 41.1794C38.1058 41.2751 38.1581 41.4035 38.158 41.5373V43.5163C38.155 43.6479 38.1013 43.7733 38.0082 43.8665C37.9151 43.9596 37.7897 44.0132 37.658 44.0163H8.58003C8.44629 44.0163 8.31785 43.964 8.22217 43.8706C8.12649 43.7771 8.07116 43.65 8.06803 43.5163V41.5393C8.06803 41.4035 8.12197 41.2733 8.21799 41.1772C8.31401 41.0812 8.44424 41.0273 8.58003 41.0273V41.0253ZM31.243 60.0703H51.643C51.697 63.5973 53.151 66.7613 57.088 69.2443H25.798C28.968 66.9493 31.256 64.1693 31.243 60.0703ZM79.854 8.49727V48.3383C79.8535 48.8734 79.6405 49.3864 79.262 49.7646C78.8834 50.1428 78.3702 50.3553 77.835 50.3553H5.01903C4.4893 50.3466 3.98419 50.1301 3.61267 49.7524C3.24114 49.3747 3.03296 48.8661 3.03303 48.3363V8.49727H21.315V11.0973C21.315 11.4543 21.4568 11.7966 21.7093 12.049C21.9617 12.3015 22.304 12.4433 22.661 12.4433H24.714C24.9158 13.3476 25.2348 14.2216 25.663 15.0433L24.085 16.6343C23.8403 16.8856 23.7034 17.2225 23.7034 17.5733C23.7034 17.924 23.8403 18.261 24.085 18.5123L26.044 20.4773C26.2957 20.7241 26.6341 20.8623 26.9865 20.8623C27.339 20.8623 27.6774 20.7241 27.929 20.4773L29.376 19.0233C30.1712 19.519 31.0292 19.9061 31.927 20.1743V22.4093C31.927 22.5863 31.9619 22.7616 32.0298 22.9251C32.0976 23.0886 32.197 23.2371 32.3223 23.3621C32.4476 23.4871 32.5964 23.5862 32.76 23.6537C32.9237 23.7211 33.099 23.7557 33.276 23.7553H36.056C36.2328 23.7553 36.4078 23.7205 36.5711 23.6528C36.7344 23.5852 36.8828 23.486 37.0078 23.361C37.1328 23.2361 37.2319 23.0877 37.2996 22.9244C37.3672 22.7611 37.402 22.586 37.402 22.4093V20.3903C38.3154 20.1832 39.1962 19.8525 40.02 19.4073L41.602 20.9893C41.8533 21.234 42.1903 21.3709 42.541 21.3709C42.8918 21.3709 43.2287 21.234 43.48 20.9893L45.445 19.0243C45.6897 18.773 45.8267 18.436 45.8267 18.0853C45.8267 17.7345 45.6897 17.3976 45.445 17.1463L43.998 15.6993C44.4944 14.906 44.8838 14.0506 45.156 13.1553H47.391C47.748 13.1553 48.0904 13.0135 48.3428 12.761C48.5952 12.5086 48.737 12.1663 48.737 11.8093V9.02827C48.7364 8.84556 48.6997 8.66476 48.629 8.49627L79.854 8.49727ZM70.902 18.0973L73.085 20.2763C73.3601 20.5525 73.5145 20.9265 73.5145 21.3163C73.5145 21.7061 73.3601 22.08 73.085 22.3563L71.328 24.1133C71.8187 25.0272 72.1853 26.0024 72.418 27.0133H74.685C75.0731 27.0185 75.4437 27.1759 75.7169 27.4516C75.9901 27.7272 76.1442 28.0991 76.146 28.4873V31.5703C76.146 31.9612 75.9907 32.3361 75.7143 32.6125C75.4379 32.889 75.063 33.0443 74.672 33.0443H72.194C71.893 34.0374 71.4605 34.9858 70.908 35.8643L72.517 37.4733C72.7925 37.7507 72.9471 38.1258 72.9471 38.5168C72.9471 38.9077 72.7925 39.2828 72.517 39.5603L70.35 41.7143C70.0726 41.9897 69.6975 42.1443 69.3065 42.1443C68.9156 42.1443 68.5405 41.9897 68.263 41.7143L66.513 39.9553C65.5964 40.4461 64.6185 40.8126 63.605 41.0453V43.3203C63.6032 43.7106 63.4473 44.0845 63.1713 44.3605C62.8952 44.6365 62.5214 44.7924 62.131 44.7943H59.049C58.6587 44.7924 58.2848 44.6365 58.0088 44.3605C57.7328 44.0845 57.5769 43.7106 57.575 43.3203V40.8663C56.5824 40.5639 55.6342 40.1315 54.755 39.5803L53.146 41.1893C52.8686 41.4647 52.4935 41.6193 52.1025 41.6193C51.7116 41.6193 51.3365 41.4647 51.059 41.1893L48.885 39.0223C48.61 38.746 48.4556 38.3721 48.4556 37.9823C48.4556 37.5925 48.61 37.2185 48.885 36.9423L50.635 35.1853C50.1496 34.2718 49.7852 33.2989 49.551 32.2913H47.276C46.8857 32.2894 46.5118 32.1335 46.2358 31.8575C45.9598 31.5815 45.8039 31.2076 45.802 30.8173V27.7173C45.802 27.3257 45.9571 26.9501 46.2333 26.6725C46.5096 26.395 46.8845 26.2381 47.276 26.2363H49.76C50.0582 25.2421 50.4909 24.2933 51.046 23.4163L49.437 21.8073C49.2989 21.6708 49.1893 21.5083 49.1145 21.3292C49.0397 21.1501 49.0011 20.9579 49.0011 20.7638C49.0011 20.5696 49.0397 20.3775 49.1145 20.1983C49.1893 20.0192 49.2989 19.8567 49.437 19.7203L51.611 17.5393C51.8885 17.2638 52.2636 17.1092 52.6545 17.1092C53.0455 17.1092 53.4206 17.2638 53.698 17.5393L55.455 19.2963C56.3689 18.8056 57.3442 18.4391 58.355 18.2063V15.9343C58.3569 15.5439 58.5128 15.1701 58.7888 14.894C59.0648 14.618 59.4387 14.4621 59.829 14.4603H62.912C63.3022 14.4624 63.6758 14.6184 63.9516 14.8944C64.2274 15.1704 64.3832 15.5441 64.385 15.9343V18.4183C65.3782 18.7193 66.3266 19.1518 67.205 19.7043L68.815 18.0953C69.0925 17.8198 69.4676 17.6652 69.8585 17.6652C70.2495 17.6652 70.6246 17.8198 70.902 18.0953V18.0973ZM40.229 8.49727C40.4751 9.31369 40.5267 10.1764 40.3798 11.0163C40.2329 11.8562 39.8915 12.6501 39.3829 13.3346C38.8743 14.019 38.2127 14.5749 37.4509 14.958C36.6891 15.341 35.8482 15.5405 34.9955 15.5405C34.1428 15.5405 33.302 15.341 32.5402 14.958C31.7783 14.5749 31.1167 14.019 30.6081 13.3346C30.0996 12.6501 29.7582 11.8562 29.6113 11.0163C29.4644 10.1764 29.516 9.31369 29.762 8.49727H40.229ZM60.985 23.5813C62.1832 23.5813 63.3544 23.9366 64.3507 24.6022C65.3469 25.2679 66.1234 26.214 66.5819 27.321C67.0404 28.4279 67.1604 29.646 66.9266 30.8211C66.6929 31.9963 66.1159 33.0757 65.2687 33.9229C64.4215 34.7702 63.342 35.3471 62.1669 35.5809C60.9917 35.8146 59.7737 35.6947 58.6667 35.2361C57.5598 34.7776 56.6136 34.0012 55.948 33.0049C55.2823 32.0087 54.927 30.8374 54.927 29.6393C54.927 28.0326 55.5653 26.4917 56.7014 25.3556C57.8375 24.2195 59.3783 23.5813 60.985 23.5813ZM76.685 3.96727C76.9512 3.96727 77.2115 4.04622 77.4328 4.19412C77.6542 4.34202 77.8267 4.55223 77.9286 4.79818C78.0304 5.04413 78.0571 5.31477 78.0052 5.57586C77.9532 5.83696 77.825 6.0768 77.6368 6.26504C77.4486 6.45328 77.2087 6.58147 76.9476 6.63341C76.6865 6.68535 76.4159 6.65869 76.1699 6.55682C75.924 6.45494 75.7138 6.28242 75.5659 6.06107C75.418 5.83972 75.339 5.57949 75.339 5.31327C75.339 4.95629 75.4808 4.61393 75.7333 4.36151C75.9857 4.10908 76.328 3.96727 76.685 3.96727ZM67.638 3.96727C67.9042 3.96727 68.1645 4.04622 68.3858 4.19412C68.6072 4.34202 68.7797 4.55223 68.8816 4.79818C68.9834 5.04413 69.0101 5.31477 68.9582 5.57586C68.9062 5.83696 68.778 6.0768 68.5898 6.26504C68.4016 6.45328 68.1617 6.58147 67.9006 6.63341C67.6395 6.68535 67.3689 6.65869 67.1229 6.55682C66.877 6.45494 66.6668 6.28242 66.5189 6.06107C66.371 5.83972 66.292 5.57949 66.292 5.31327C66.292 4.95629 66.4338 4.61393 66.6863 4.36151C66.9387 4.10908 67.281 3.96727 67.638 3.96727ZM72.161 3.96727C72.4272 3.96727 72.6875 4.04622 72.9088 4.19412C73.1302 4.34202 73.3027 4.55223 73.4046 4.79818C73.5064 5.04413 73.5331 5.31477 73.4812 5.57586C73.4292 5.83696 73.301 6.0768 73.1128 6.26504C72.9246 6.45328 72.6847 6.58147 72.4236 6.63341C72.1625 6.68535 71.8919 6.65869 71.6459 6.55682C71.4 6.45494 71.1898 6.28242 71.0419 6.06107C70.894 5.83972 70.815 5.57949 70.815 5.31327C70.815 4.95629 70.9568 4.61393 71.2093 4.36151C71.4617 4.10908 71.804 3.96727 72.161 3.96727Z" fill="#071B41"/>
</svg>
