<svg width="74" height="33" viewBox="0 0 74 33" fill="none" xmlns="http://www.w3.org/2000/svg">
<path d="M60.564 0.178973H48.832L48.849 5.56297C47.4188 3.88437 45.645 2.53223 43.6475 1.59789C41.6499 0.663552 39.4751 0.168773 37.27 0.146973L20.128 0.146973L0.963989 32.947H13.858L17.818 26.016L25.345 26.008V32.982L37.012 33.001C39.2425 32.9206 41.4345 32.3959 43.4597 31.4576C45.4849 30.5194 47.3024 29.1865 48.806 27.537L48.798 32.947H59.798L59.806 26.047H60.944C65.402 26.388 73.075 21.777 73.044 12.847C73.0811 11.1891 72.7851 9.54061 72.1734 7.99924C71.5617 6.45786 70.6469 5.05494 69.4831 3.87361C68.3193 2.69228 66.9302 1.75658 65.3982 1.12194C63.8661 0.487302 62.2222 0.166646 60.564 0.178973ZM59.822 22.085L55.531 22.096L55.523 29.012L52.809 29.018V22.078H48.009C48.009 22.078 45.409 28.749 36.709 28.984L29.638 29.02V22.047H15.483L11.334 29.007H8.09399L22.402 4.42297H36.642C45.612 4.47397 48.621 12.041 49.025 14.861H52.807V4.35097H60.107C65.644 4.61997 68.873 9.25597 68.969 12.39C69.0335 13.6345 68.8449 14.8792 68.4146 16.0488C67.9844 17.2184 67.3213 18.2885 66.4656 19.1945C65.6099 20.1005 64.5793 20.8235 63.4362 21.3198C62.2931 21.8161 61.0612 22.0754 59.815 22.082L59.822 22.085Z" fill="#F11919"/>
<path d="M32.425 7.22599V11.292H36.08C43.28 11.273 43.28 22.031 35.887 22.01H32.427V26.083H35.917C41.517 26.113 45.893 22.29 45.885 16.317C45.8132 13.8892 44.8015 11.5841 43.0632 9.88781C41.3249 8.19147 38.9958 7.23641 36.567 7.22399H32.424L32.425 7.22599ZM55.681 7.25599V11.333H59.633C62.182 11.458 62.233 15.145 59.658 15.133H55.702V19.248C55.702 19.248 59.128 19.269 59.444 19.248C60.2748 19.2797 61.1033 19.1408 61.8783 18.8398C62.6533 18.5388 63.3584 18.0822 63.9501 17.4981C64.5418 16.9141 65.0074 16.2149 65.3184 15.4438C65.6293 14.6728 65.7789 13.8461 65.758 13.015C65.758 9.13899 62.692 7.25799 59.439 7.25799C60.005 7.25799 55.676 7.25799 55.676 7.25799L55.681 7.25599ZM25.527 7.17499L29.627 7.16699V19.267H17.238L19.618 15.118L25.518 15.141L25.529 7.17799L25.527 7.17499Z" fill="#F11919"/>
</svg>
