<svg width="122" height="19" viewBox="0 0 122 19" fill="none" xmlns="http://www.w3.org/2000/svg">
<path fill-rule="evenodd" clip-rule="evenodd" d="M15.176 4.11918H15.131L9.551 18.2122L3.988 4.11918H3.946L1.207 17.6762H0.231003L3.67 0.763184L9.551 15.6712L15.451 0.763184L18.89 17.6762H17.914L15.176 4.11818V4.11918ZM32.543 15.9612C31.0758 17.2011 29.219 17.8851 27.298 17.8932C25.0833 17.869 22.9675 16.9723 21.4099 15.3976C19.8523 13.823 18.9787 11.6975 18.9787 9.48268C18.9787 7.26783 19.8523 5.14237 21.4099 3.56772C22.9675 1.99307 25.0833 1.09633 27.298 1.07218C29.2176 1.07843 31.0739 1.75948 32.542 2.99618C34.0111 1.75999 35.868 1.07965 37.788 1.07418C40.0027 1.09833 42.1185 1.99507 43.6761 3.56972C45.2337 5.14437 46.1073 7.26983 46.1073 9.48468C46.1073 11.6995 45.2337 13.825 43.6761 15.3996C42.1185 16.9743 40.0027 17.871 37.788 17.8952C35.867 17.8873 34.0101 17.2033 32.543 15.9632V15.9612ZM31.856 15.3202C30.9441 16.0708 29.8617 16.5859 28.704 16.8202C27.2891 17.1051 25.821 16.9537 24.494 16.3862C23.1566 15.8122 22.0206 14.8527 21.231 13.6302C20.2966 12.1916 19.881 10.4773 20.0528 8.77051C20.2247 7.06374 20.9736 5.46666 22.176 4.24318C22.8437 3.55879 23.6399 3.01301 24.5191 2.63719C25.3982 2.26137 26.3429 2.0629 27.299 2.05318C28.9491 2.05443 30.5481 2.62524 31.826 3.66918C30.3196 5.23644 29.4808 7.32745 29.4864 9.50125C29.492 11.675 30.3416 13.7617 31.856 15.3212V15.3202ZM33.229 15.3202C33.7604 15.757 34.3514 16.116 34.984 16.3862C36.3107 16.9535 37.7784 17.1049 39.193 16.8202C40.6148 16.5324 41.9172 15.8237 42.931 14.7862C43.9561 13.7368 44.6513 12.4102 44.931 10.9702C45.214 9.5241 45.0716 8.02696 44.521 6.66018C43.9768 5.30383 43.0441 4.13841 41.84 3.31018C40.6472 2.49169 39.2346 2.05347 37.788 2.05318C36.142 2.06908 34.5505 2.64543 33.276 3.68718C34.7754 5.2551 35.6085 7.34331 35.6001 9.51276C35.5917 11.6822 34.7425 13.7639 33.231 15.3202H33.229ZM32.561 4.35318C33.1888 5.0252 33.6871 5.8073 34.031 6.66018C34.5819 8.02689 34.7243 9.52411 34.441 10.9702C34.1699 12.3606 33.5112 13.646 32.541 14.6782C32.2358 14.3542 31.9603 14.0035 31.718 13.6302C30.7982 12.2134 30.381 10.5287 30.5333 8.84638C30.6856 7.16408 31.3987 5.58171 32.558 4.35318H32.561ZM61.761 18.2192L48.318 3.59518V17.6882H47.299V1.09018L60.738 15.5782V1.29218H61.757V18.2202L61.761 18.2192ZM79.106 2.76218C80.0349 3.21015 80.8589 3.84907 81.524 4.63718V3.19618C80.0844 1.84444 78.1887 1.08434 76.214 1.06718C73.991 1.09006 71.8666 1.98771 70.3007 3.56574C68.7349 5.14376 67.8537 7.27511 67.848 9.49818C67.8762 11.7067 68.7629 13.8174 70.3204 15.3835C71.8779 16.9495 73.9837 17.8478 76.192 17.8882C78.1556 17.8665 80.0462 17.1408 81.52 15.8432V14.4082C80.8409 15.1673 80.0148 15.7808 79.0918 16.2115C78.1688 16.6422 77.168 16.8813 76.15 16.9142C74.2138 16.8366 72.3785 16.03 71.012 14.6562C70.3417 13.9961 69.8085 13.21 69.443 12.3432C69.0748 11.4715 68.8802 10.5364 68.87 9.59018C68.8664 7.63373 69.6247 5.75275 70.9842 4.34582C72.3437 2.9389 74.1976 2.1166 76.153 2.05318C77.1763 2.07628 78.1828 2.31802 79.105 2.76218H79.106ZM85.091 16.6982H89.167V17.6762H84.072V1.29218H85.091V16.6982ZM92.031 8.22018V2.27018H98.656V1.29218H91.003V17.6722H98.652V16.6952H92.031V9.19518H98.481V8.22018H92.031ZM109.276 17.6762H108.108L102.888 9.91818H102.377V17.6762H101.358V1.29218H103.358C104.633 1.15539 105.918 1.44516 107.011 2.11618C107.545 2.52794 107.971 3.06359 108.252 3.67686C108.534 4.29014 108.661 4.9626 108.624 5.63618C108.624 8.48418 106.693 9.96218 104.034 9.91818L109.282 17.6762H109.276ZM103.655 8.94318C104.651 9.05637 105.653 8.78409 106.455 8.18218C106.821 7.86268 107.112 7.46578 107.306 7.02018C107.501 6.57098 107.595 6.08462 107.582 5.59518C107.614 4.99131 107.47 4.39119 107.168 3.86708C106.867 3.34298 106.42 2.91725 105.882 2.64118C105.046 2.32561 104.151 2.19924 103.261 2.27118H102.361V8.94318H103.655ZM121.268 1.29218H119.91L112.324 8.94318V1.29218H111.305V17.6762H112.321V10.2762L112.746 9.84118L120.433 17.6712H121.77L113.447 9.17118L121.268 1.29218Z" fill="#22313E"/>
</svg>
