<svg width="123" height="32" viewBox="0 0 123 32" fill="none" xmlns="http://www.w3.org/2000/svg">
<path d="M119.981 26.521L117.336 25.444L116.803 23.761L113.834 24.399L111.9 22.015L108.92 22.674L107.09 20.405L104.706 20.342L102.95 18.721L100.5 19.538L98.242 16.203L94.855 14.823L94.531 12.711L92.712 11.969L92.555 5.15199L83.867 1.60799L80.239 4.42L79.139 7.12799C77.396 6.16282 75.4312 5.66921 73.439 5.69598C72.689 5.69799 71.9405 5.76492 71.202 5.896V2.85399C71.2025 2.34809 71.0028 1.86256 70.6464 1.50352C70.29 1.14449 69.8059 0.94116 69.3 0.937988H1.91299C1.40572 0.938253 0.919292 1.1399 0.560593 1.4986C0.201893 1.8573 0.000264966 2.34372 0 2.851V22.83C0.000264966 23.3373 0.201893 23.8237 0.560593 24.1824C0.919292 24.5411 1.40572 24.7427 1.91299 24.743H69.285C69.7923 24.7427 70.2787 24.5411 70.6374 24.1824C70.9961 23.8237 71.1977 23.3373 71.198 22.83V19.192C71.9364 19.3235 72.6849 19.3905 73.435 19.392C73.885 19.392 74.313 19.361 74.742 19.319L75.212 22.78L83.9 26.314L88.772 21.557L90.591 22.299L92.291 21.013L119.233 31.991L122.045 29.513L119.981 26.521ZM67.905 12.856C67.905 12.877 67.895 12.887 67.895 12.908C67.8856 13.3744 67.7117 13.8224 67.404 14.173C67.0639 13.7003 66.8778 13.1343 66.871 12.552C66.8746 12.1182 66.9823 11.6916 67.185 11.308C67.4108 11.498 67.5922 11.7351 67.7166 12.0027C67.841 12.2703 67.9053 12.5619 67.905 12.857V12.856ZM71.198 12.898V8.63199C71.9309 8.45795 72.6817 8.37035 73.435 8.37099C75.0821 8.34406 76.7028 8.78628 78.108 9.646L75.285 16.567C73.9278 16.8296 72.5303 16.8009 71.185 16.483V12.898H71.198ZM80.012 12.553C80.001 13.0463 79.8633 13.5284 79.612 13.953C79.4833 13.751 79.3913 13.5279 79.34 13.294C79.274 12.9175 79.3139 12.5302 79.455 12.175C79.5419 11.9631 79.6658 11.7684 79.821 11.6C79.9427 11.9032 80.0074 12.2263 80.012 12.553ZM83.243 13.714C83.212 13.777 83.18 13.829 83.149 13.892V13.767C82.9493 14.1622 82.6263 14.4816 82.229 14.677C82.5164 14.0063 82.6657 13.2846 82.668 12.555C82.6686 12.1215 82.6159 11.6896 82.511 11.269C82.8927 11.5327 83.1732 11.9185 83.3063 12.363C83.4394 12.8074 83.417 13.2839 83.243 13.714ZM64.309 11.529C64.2392 11.8664 64.2007 12.2095 64.194 12.554C64.198 13.1857 64.3114 13.812 64.529 14.405C64.498 14.384 64.477 14.363 64.445 14.342C64.435 14.332 64.424 14.321 64.414 14.321C64.0361 13.952 63.8184 13.4491 63.808 12.921C63.808 12.9 63.798 12.89 63.798 12.869C63.8078 12.377 63.9889 11.9038 64.31 11.531" fill="white"/>
<path d="M69.285 0.948005H1.91299C1.40572 0.94827 0.919292 1.1499 0.560593 1.5086C0.201893 1.8673 0.000264966 2.35372 0 2.861V22.84C0.000264966 23.3473 0.201893 23.8337 0.560593 24.1924C0.919292 24.5511 1.40572 24.7527 1.91299 24.753H69.285C69.7923 24.7527 70.2787 24.5511 70.6374 24.1924C70.9961 23.8337 71.1977 23.3473 71.198 22.84V2.861C71.1987 2.6096 71.1496 2.36054 71.0537 2.12815C70.9578 1.89576 70.8169 1.68461 70.6392 1.50684C70.4614 1.32907 70.2502 1.18818 70.0179 1.09228C69.7855 0.996373 69.5364 0.947345 69.285 0.948005ZM65.856 14.895C65.4508 14.895 65.0546 14.7748 64.7176 14.5497C64.3807 14.3245 64.118 14.0045 63.963 13.6301C63.8079 13.2557 63.7673 12.8437 63.8464 12.4463C63.9254 12.0488 64.1206 11.6837 64.4071 11.3971C64.6937 11.1106 65.0588 10.9154 65.4563 10.8364C65.8537 10.7573 66.2657 10.7979 66.6401 10.953C67.0145 11.1081 67.3345 11.3707 67.5597 11.7076C67.7848 12.0446 67.905 12.4407 67.905 12.846C67.9042 13.3892 67.6881 13.9099 67.304 14.294C66.9199 14.6781 66.3992 14.8942 65.856 14.895Z" fill="#4B2D87"/>
<path d="M64.204 12.5531C64.204 16.4001 68.261 19.4111 73.446 19.4111C78.631 19.4111 82.678 16.4001 82.678 12.5531C82.678 8.70607 78.621 5.69507 73.446 5.69507C68.271 5.69507 64.204 8.70607 64.204 12.5531ZM66.87 12.5531C66.87 10.2841 69.881 8.36107 73.436 8.36107C76.991 8.36107 80.002 10.2851 80.002 12.5531C80.002 14.8211 76.991 16.7451 73.436 16.7451C69.881 16.7451 66.87 14.8211 66.87 12.5531Z" fill="#343536"/>
<path d="M66.41 11.435C67.173 9.302 70.09 7.41 73.498 7.41C77.649 7.41 81.098 9.302 81.862 11.435C81.13 8.56 77.638 6.375 73.435 6.375C69.723 6.375 66.566 8.075 65.374 10.463C64.832 11.675 66.41 11.435 66.41 11.435Z" stroke="#343536" stroke-width="3.186"/>
<path d="M79.009 15.711C77.4289 17.0208 75.4363 17.7293 73.384 17.711C69.233 17.711 65.784 15.819 65.02 13.686C65.752 16.561 69.244 18.746 73.447 18.746C75.8197 18.7999 78.136 18.0192 79.992 16.54C79.6221 16.3192 79.2902 16.0403 79.009 15.7141" fill="white"/>
<path d="M79.009 15.711C77.4289 17.0208 75.4363 17.7293 73.384 17.711C69.233 17.711 65.784 15.819 65.02 13.686C65.752 16.561 69.244 18.746 73.447 18.746C75.8197 18.7999 78.136 18.0192 79.992 16.54C79.6219 16.3183 79.29 16.0384 79.009 15.711V15.711Z" stroke="#343536" stroke-width="6.372"/>
<path d="M71.208 12.8979H67.908C67.8962 13.4308 67.6763 13.9378 67.2953 14.3105C66.9143 14.6831 66.4025 14.8918 65.8695 14.8918C65.3365 14.8918 64.8248 14.6831 64.4438 14.3105C64.0628 13.9378 63.8429 13.4308 63.8311 12.8979H63.179V20.614H71.2191V12.8979" fill="#4B2D87"/>
<path d="M119.981 26.521L117.336 25.444L116.803 23.761L113.823 24.399L111.889 22.015L108.909 22.674L107.079 20.405L104.695 20.342L102.939 18.721L100.492 19.536L98.234 16.201L94.847 14.821L94.523 12.709L92.693 11.967L92.536 5.14996L83.848 1.60596L80.241 4.41795L74.596 18.262L75.213 22.789L83.901 26.323L88.773 21.566L90.596 22.307L92.296 21.021L119.239 31.999L122.062 29.521L119.981 26.521ZM80.581 14.832C80.2069 14.6789 79.8865 14.4184 79.6604 14.0833C79.4343 13.7483 79.3126 13.3537 79.3108 12.9494C79.3089 12.5452 79.427 12.1495 79.65 11.8124C79.873 11.4753 80.191 11.2118 80.5637 11.0554C80.9364 10.8989 81.3472 10.8565 81.744 10.9335C82.1408 11.0104 82.5059 11.2034 82.7931 11.4878C83.0803 11.7723 83.2768 12.1355 83.3575 12.5315C83.4383 12.9276 83.3999 13.3387 83.247 13.713C83.1456 13.9616 82.9962 14.1878 82.8073 14.3787C82.6183 14.5695 82.3936 14.7212 82.146 14.8252C81.8984 14.9291 81.6327 14.9832 81.3642 14.9844C81.0957 14.9855 80.8295 14.9337 80.581 14.832Z" fill="#343536"/>
<path d="M116.218 27.4309L115.118 26.3439L112.964 26.1039L110.904 24.3679L108.468 24.2109L106.126 22.2249L103.47 22.1099L102.257 20.5209L99.957 21.4519L98.525 20.5419L97.563 18.4819L94.845 17.4359L90.433 17.0599L87.933 15.7839L85.622 18.7639L80.907 19.9239L76.819 17.6759L75.564 18.3869L75.899 22.1189L83.399 24.8579L88.125 20.6759L90.551 21.3449L91.921 20.0379L118.675 30.8689L119.72 29.2379L116.22 27.4289" fill="#97A1AA"/>
<path d="M80.576 6.55209L81.308 4.9211L83.89 2.69409L91.439 5.7681L91.739 12.4491L92.105 13.4321L90.756 12.9511L89.815 7.6821L84.42 5.48209L80.573 6.5481" fill="#B9C1CA"/>
<path d="M76.562 19.2449L76.729 21.3669L82.971 23.7189L87.728 19.6099L90.328 19.5159L87.505 18.8779L83.699 21.4389L77.938 20.4459L76.558 19.2459" fill="#B9C1CA"/>
<path d="M19.958 17.8129C19.958 18.0329 19.916 18.0949 19.676 18.0949H16.362C16.122 18.0949 16.08 18.0319 16.08 17.8129V11.5919C16.08 10.8289 15.996 9.89793 15.233 9.89793C14.5713 9.94596 13.9517 10.2408 13.497 10.7239V16.2129H14.528C14.768 16.2129 14.81 16.2759 14.81 16.4949V17.8119C14.81 18.0319 14.768 18.0939 14.528 18.0939H11.218C10.978 18.0939 10.936 18.0309 10.936 17.8119V11.5909C10.936 10.8279 10.852 9.89692 10.089 9.89692C9.42728 9.94495 8.80772 10.2398 8.35303 10.7229V16.2119H9.38803C9.62803 16.2119 9.67003 16.2749 9.67003 16.4939V17.8109C9.67003 18.0309 9.62803 18.0929 9.38803 18.0929H4.75603C4.51603 18.0929 4.47403 18.0299 4.47403 17.8109V16.4939C4.47403 16.2739 4.51603 16.2119 4.75603 16.2119H5.78102V11.7059C5.81004 11.1271 5.74245 10.5475 5.58102 9.99093H4.60902C4.36902 9.99093 4.32703 9.90693 4.32703 9.70893V8.40192C4.32703 8.18192 4.36902 8.11993 4.60902 8.11993H7.40903C7.89003 8.11993 7.95302 8.72593 8.05702 9.16593C8.45411 8.74235 8.93097 8.40141 9.46022 8.1627C9.98947 7.92398 10.5607 7.7922 11.141 7.77492C11.5861 7.76523 12.0232 7.89381 12.3922 8.14294C12.7611 8.39206 13.0437 8.74948 13.201 9.16593C13.5965 8.74038 14.0731 8.39811 14.6027 8.15925C15.1323 7.92038 15.7042 7.78972 16.285 7.77492C18.177 7.77492 18.627 9.20692 18.627 10.9639V16.2119H19.652C19.892 16.2119 19.934 16.2749 19.934 16.4939V17.8109" fill="white"/>
<path d="M27.831 15.9939C27.473 17.5117 27.0225 19.0061 26.482 20.4689C26.2538 21.0604 25.8428 21.5636 25.3088 21.9053C24.7748 22.2471 24.1457 22.4095 23.513 22.3689C22.405 22.3689 20.774 21.8249 20.774 21.4389C20.783 21.3535 20.8117 21.2713 20.858 21.1989L21.464 19.8819C21.4784 19.8442 21.5024 19.8109 21.5336 19.7853C21.5648 19.7597 21.6022 19.7426 21.642 19.7359C22.1798 20.002 22.7604 20.1713 23.357 20.2359C24.413 20.2359 24.706 19.6089 24.977 18.7509L25.177 18.0819H24.324C24.063 18.0819 24.024 17.9979 23.958 17.8209L21.25 9.9899H20.602C20.362 9.9899 20.32 9.9269 20.32 9.7079V8.40089C20.32 8.18089 20.362 8.1189 20.602 8.1189H23.143C23.425 8.1189 23.443 8.2029 23.509 8.4189L24.809 13.2279C25.049 14.1379 25.457 16.0279 25.572 16.7199H25.614C25.714 15.9359 26.199 13.5939 26.283 13.2279L27.37 8.4189C27.433 8.1579 27.454 8.1189 27.736 8.1189H30.182C30.402 8.1189 30.464 8.16089 30.464 8.40089V9.7079C30.464 9.9279 30.422 9.9899 30.182 9.9899H29.471L27.83 15.9899" fill="white"/>
<path d="M37.282 17.663C37.282 18.029 37.198 18.092 36.864 18.092H31.772C31.427 18.092 31.343 18.029 31.343 17.663V16.576C31.343 16.21 31.427 16.147 31.772 16.147H32.797V6.19402H31.772C31.427 6.19402 31.343 6.13102 31.343 5.77602V4.68901C31.343 4.32301 31.427 4.26001 31.772 4.26001H36.498C38.129 4.26001 41.198 4.26001 41.198 8.06001C41.2323 8.66883 41.1361 9.27796 40.9157 9.84654C40.6954 10.4151 40.356 10.93 39.9204 11.3567C39.4848 11.7834 38.963 12.1121 38.39 12.3207C37.817 12.5292 37.206 12.6129 36.598 12.566H35.532V16.166H36.849C37.194 16.166 37.267 16.229 37.267 16.595V17.663H37.282ZM36.142 10.439C37.334 10.439 38.463 10.239 38.463 8.20201C38.463 6.44601 37.386 6.38301 36.341 6.38301H35.515V10.44H36.142" fill="white"/>
<path d="M49.536 14.519C49.5137 15.0907 49.5812 15.6623 49.736 16.213H50.604C50.824 16.213 50.886 16.276 50.886 16.495V17.812C50.886 18.032 50.844 18.094 50.604 18.094H48.084C47.603 18.094 47.561 17.594 47.478 17.226C47.1621 17.6088 46.7648 17.9164 46.315 18.1262C45.8652 18.3361 45.3743 18.4429 44.878 18.439C44.4671 18.4639 44.0556 18.4 43.6715 18.2517C43.2875 18.1034 42.9398 17.8742 42.6522 17.5797C42.3646 17.2851 42.1437 16.9321 42.0046 16.5446C41.8655 16.1571 41.8114 15.7443 41.846 15.334C41.846 11.926 45.526 11.926 47.115 11.926V11.299C47.115 10.389 46.958 9.79903 45.683 9.79903C44.8274 9.8943 43.9873 10.0979 43.183 10.405C43.083 10.405 43.005 10.28 42.983 10.205L42.575 8.97102C42.5443 8.89389 42.5231 8.8133 42.512 8.73103C42.512 8.27103 44.512 7.78003 46.067 7.78003C48.587 7.78003 49.538 8.93004 49.538 11.031L49.536 14.519ZM47.11 13.568C46.61 13.568 44.266 13.411 44.266 15.189C44.2584 15.3674 44.2872 15.5455 44.3507 15.7124C44.4142 15.8793 44.5111 16.0315 44.6353 16.1597C44.7596 16.2879 44.9087 16.3894 45.0736 16.4581C45.2384 16.5267 45.4155 16.5611 45.594 16.559C46.1798 16.5132 46.7242 16.2392 47.11 15.796V13.569" fill="white"/>
<path d="M58.903 15.9939C58.545 17.5117 58.0945 19.0061 57.554 20.4689C57.3258 21.0604 56.9148 21.5636 56.3808 21.9053C55.8468 22.2471 55.2176 22.4095 54.585 22.3689C53.477 22.3689 51.846 21.8249 51.846 21.4389C51.855 21.3535 51.8838 21.2713 51.93 21.1989L52.536 19.8819C52.5504 19.8442 52.5744 19.8109 52.6056 19.7853C52.6368 19.7597 52.6742 19.7426 52.714 19.7359C53.2518 20.002 53.8324 20.1713 54.429 20.2359C55.475 20.2359 55.778 19.6089 56.039 18.7509L56.239 18.0819H55.386C55.125 18.0819 55.086 17.9979 55.02 17.8209L52.312 9.9899H51.664C51.424 9.9899 51.382 9.9269 51.382 9.7079V8.40089C51.382 8.18089 51.424 8.1189 51.664 8.1189H54.205C54.487 8.1189 54.505 8.2029 54.571 8.4189L55.871 13.2279C56.111 14.1379 56.519 16.0279 56.634 16.7199H56.676C56.776 15.9359 57.261 13.5939 57.345 13.2279L58.432 8.4189C58.495 8.1579 58.516 8.1189 58.798 8.1189H61.234C61.454 8.1189 61.516 8.16089 61.516 8.40089V9.7079C61.516 9.9279 61.474 9.9899 61.234 9.9899H60.534L58.903 15.9899" fill="white"/>
<path d="M66.4101 11.435C67.1731 9.302 70.0901 7.41 73.4981 7.41C77.6491 7.41 81.098 9.302 81.862 11.435C81.13 8.56 77.638 6.375 73.435 6.375C69.723 6.375 66.566 8.075 65.374 10.463C64.83 11.676 66.409 11.435 66.409 11.435" fill="white"/>
<path d="M28.803 21.827C28.85 21.6206 28.85 21.4063 28.803 21.2C28.7507 21.4057 28.7507 21.6212 28.803 21.827Z" fill="#4B2D87"/>
<path d="M65.5 19.004C65.5471 18.7976 65.5471 18.5833 65.5 18.377C65.4478 18.5827 65.4478 18.7982 65.5 19.004Z" fill="#4B2D87"/>
<path d="M62.364 18.377C62.411 18.1707 62.411 17.9564 62.364 17.75C62.3118 17.9557 62.3118 18.1713 62.364 18.377Z" fill="#4B2D87"/>
<path d="M66.968 19.056C67.015 18.8496 67.015 18.6353 66.968 18.429C66.9211 18.6353 66.9211 18.8496 66.968 19.056Z" fill="#4B2D87"/>
</svg>
