<svg width="68" height="68" viewBox="0 0 68 68" fill="none" xmlns="http://www.w3.org/2000/svg">
<path d="M33.659 11.204C29.217 11.204 24.8748 12.5212 21.1815 14.989C17.4881 17.4569 14.6095 20.9645 12.9096 25.0683C11.2097 29.1722 10.765 33.6879 11.6316 38.0445C12.4981 42.4012 14.6372 46.403 17.7781 49.5439C20.919 52.6849 24.9209 54.8239 29.2775 55.6905C33.6341 56.557 38.1499 56.1123 42.2537 54.4124C46.3575 52.7125 49.8652 49.8339 52.333 46.1406C54.8008 42.4472 56.118 38.105 56.118 33.663C56.1175 27.7067 53.7511 21.9944 49.5393 17.7827C45.3276 13.5709 39.6154 11.2045 33.659 11.204M67.326 33.663C67.326 40.3207 65.3518 46.829 61.6531 52.3647C57.9543 57.9005 52.6971 62.2152 46.5462 64.7632C40.3953 67.3112 33.627 67.978 27.0972 66.6795C20.5673 65.3809 14.5691 62.1752 9.86109 57.4678C5.15308 52.7603 1.94667 46.7625 0.647328 40.2328C-0.652018 33.7031 0.0140512 26.9347 2.56131 20.7835C5.10857 14.6323 9.42262 9.3746 14.9579 5.67518C20.4933 1.97576 27.0013 0.000791833 33.659 7.27962e-07C38.0802 -0.000918718 42.4582 0.869144 46.543 2.56049C50.6278 4.25184 54.3394 6.73134 57.4658 9.85737C60.5922 12.9834 63.0721 16.6947 64.764 20.7793C66.4558 24.864 67.3264 29.2419 67.326 33.663" fill="#E50019"/>
<path d="M33.66 22.124C31.3776 22.124 29.1464 22.8009 27.2486 24.0689C25.3508 25.337 23.8717 27.1394 22.9983 29.2481C22.1249 31.3568 21.8965 33.6772 22.3418 35.9157C22.7872 38.1543 23.8863 40.2105 25.5003 41.8244C27.1143 43.4382 29.1707 44.5372 31.4093 44.9824C33.6479 45.4276 35.9682 45.1989 38.0769 44.3253C40.1855 43.4517 41.9877 41.9725 43.2556 40.0746C44.5236 38.1767 45.2002 35.9455 45.2 33.663C45.1997 30.6026 43.9838 27.6676 41.8197 25.5037C39.6555 23.3397 36.7204 22.124 33.66 22.124" fill="#E50019"/>
</svg>
