<svg width="60" height="75" viewBox="0 0 60 75" fill="none" xmlns="http://www.w3.org/2000/svg">
<path d="M10.536 72.5341H49.463C50.4856 72.5345 51.4982 72.3334 52.4431 71.9423C53.388 71.5513 54.2465 70.9779 54.9697 70.255C55.693 69.532 56.2667 68.6737 56.6581 67.729C57.0495 66.7842 57.251 65.7717 57.251 64.7491V27.4341C57.2509 26.4019 56.8409 25.4119 56.111 24.6821L35.033 3.60706C34.3032 2.87689 33.3133 2.46647 32.281 2.46606H10.536C8.47127 2.46606 6.49112 3.28627 5.03115 4.74624C3.57118 6.20621 2.75098 8.18635 2.75098 10.2511V64.7511C2.75151 66.8154 3.57194 68.7951 5.03186 70.2546C6.49177 71.7141 8.47161 72.5341 10.536 72.5341V72.5341Z" stroke="#8F9FBC" stroke-width="4" stroke-linecap="round" stroke-linejoin="round"/>
<path d="M14.768 47L11.808 35.8H14L16.016 44.712L18.384 35.8H20.64L22.944 44.712L24.96 35.8H27.168L24.128 47H21.696L19.472 38.696L17.184 47H14.768ZM27.8813 43.224V41.512H34.5853V43.224H27.8813ZM36.2708 47V45.512C36.9535 44.9467 37.6148 44.3867 38.2548 43.832C38.9055 43.2773 39.4815 42.728 39.9828 42.184C40.4948 41.64 40.9002 41.112 41.1988 40.6C41.5082 40.0773 41.6628 39.5707 41.6628 39.08C41.6628 38.6213 41.5348 38.216 41.2788 37.864C41.0335 37.512 40.6228 37.336 40.0468 37.336C39.4602 37.336 39.0175 37.528 38.7188 37.912C38.4202 38.296 38.2708 38.76 38.2708 39.304H36.2868C36.3082 38.4827 36.4895 37.8 36.8308 37.256C37.1722 36.7013 37.6255 36.2907 38.1908 36.024C38.7562 35.7467 39.3908 35.608 40.0948 35.608C41.2362 35.608 42.1215 35.9227 42.7508 36.552C43.3908 37.1707 43.7108 37.976 43.7108 38.968C43.7108 39.5867 43.5668 40.1893 43.2788 40.776C43.0015 41.3627 42.6335 41.928 42.1748 42.472C41.7162 43.016 41.2202 43.528 40.6868 44.008C40.1535 44.4773 39.6362 44.9147 39.1348 45.32H43.9828V47H36.2708Z" fill="#8F9FBC"/>
</svg>
