<svg width="24" height="25" viewBox="0 0 24 25" fill="none" xmlns="http://www.w3.org/2000/svg">
<path d="M1.24103 4.13197C1.24103 3.49783 1.49294 2.88967 1.94134 2.44127C2.38973 1.99287 2.9979 1.74097 3.63203 1.74097H7.55303C7.80365 1.74192 8.04768 1.82132 8.25088 1.96803C8.45408 2.11473 8.60625 2.32138 8.68603 2.55897L10.477 7.92997C10.5669 8.20304 10.5558 8.49931 10.4457 8.76487C10.3356 9.03044 10.1338 9.24764 9.87703 9.37697L7.17703 10.728C8.49956 13.655 10.844 15.9994 13.771 17.322L15.122 14.622C15.2514 14.3652 15.4686 14.1634 15.7341 14.0533C15.9997 13.9432 16.296 13.9321 16.569 14.022L21.941 15.814C22.1789 15.8939 22.3858 16.0463 22.5325 16.2499C22.6793 16.4535 22.7585 16.698 22.759 16.949V20.869C22.759 21.5031 22.5071 22.1113 22.0587 22.5597C21.6103 23.0081 21.0022 23.26 20.368 23.26H19.168C14.4129 23.2586 9.85292 21.3687 6.49107 18.0057C3.12922 14.6427 1.24076 10.0821 1.24103 5.32697V4.13197Z" stroke="white" stroke-width="2" stroke-linecap="round" stroke-linejoin="round"/>
</svg>
