<svg width="31" height="28" viewBox="0 0 31 28" fill="none" xmlns="http://www.w3.org/2000/svg">
<path fill-rule="evenodd" clip-rule="evenodd" d="M13.162 24.097C14.7304 25.5527 16.6969 26.5079 18.8106 26.8408C20.9243 27.1737 23.0892 26.8691 25.029 25.966L28.77 27.437L28.184 23.917C31.665 20.873 30.857 16.644 28.079 13.668C27.8622 14.809 27.4656 15.9084 26.904 16.925C26.0308 18.4808 24.8404 19.8357 23.41 20.902C21.9428 22.0071 20.2908 22.8425 18.531 23.369C16.7904 23.8887 14.9792 24.1337 13.163 24.095L13.162 24.097ZM8.10204 14.243C7.88403 14.243 7.67495 14.1564 7.5208 14.0023C7.36664 13.8481 7.28004 13.639 7.28004 13.421C7.28004 13.203 7.36664 12.9939 7.5208 12.8398C7.67495 12.6856 7.88403 12.599 8.10204 12.599H15.416C15.634 12.599 15.8431 12.6856 15.9973 12.8398C16.1514 12.9939 16.238 13.203 16.238 13.421C16.238 13.639 16.1514 13.8481 15.9973 14.0023C15.8431 14.1564 15.634 14.243 15.416 14.243H8.10204ZM8.10204 10.035C7.88403 10.035 7.67495 9.94841 7.5208 9.79425C7.36664 9.6401 7.28004 9.43102 7.28004 9.21301C7.28004 8.995 7.36664 8.78592 7.5208 8.63177C7.67495 8.47761 7.88403 8.39101 8.10204 8.39101H18.552C18.77 8.39101 18.9791 8.47761 19.1333 8.63177C19.2874 8.78592 19.374 8.995 19.374 9.21301C19.374 9.43102 19.2874 9.6401 19.1333 9.79425C18.9791 9.94841 18.77 10.035 18.552 10.035H8.10204ZM13.647 0.911009H13.659C16.9583 0.965876 20.1411 2.13964 22.686 4.24001C23.8343 5.16374 24.7585 6.33543 25.3894 7.66723C26.0203 8.99903 26.3416 10.4564 26.329 11.93V11.944C26.2529 13.4172 25.8446 14.8542 25.1345 16.1472C24.4245 17.4403 23.4312 18.5561 22.229 19.411C19.56 21.3593 16.3085 22.3434 13.007 22.202C12.1212 22.1786 11.2386 22.0836 10.368 21.918C9.64589 21.7796 8.93646 21.5816 8.24704 21.326L1.98204 23.24L3.85904 18.776C2.81038 17.8684 1.94543 16.7683 1.31104 15.535C0.620616 14.1881 0.280167 12.689 0.32104 11.176C0.396804 9.70095 0.80568 8.26222 1.51698 6.96778C2.22828 5.67334 3.22353 4.55681 4.42804 3.70201C7.09637 1.75465 10.3467 0.770642 13.647 0.911009ZM13.615 2.54301H13.603C10.6737 2.41208 7.78666 3.27901 5.41404 5.00201C4.40654 5.71114 3.57238 6.63885 2.97391 7.71577C2.37545 8.79269 2.02817 9.99097 1.95804 11.221C1.92355 12.4639 2.20282 13.6955 2.77004 14.802C3.39562 16.0098 4.27588 17.0675 5.35004 17.902L5.83704 18.287L4.83704 20.667L8.32104 19.602L8.58604 19.709C9.26213 19.9777 9.9623 20.1813 10.677 20.317C11.461 20.4677 12.256 20.5543 13.054 20.576C15.9831 20.7064 18.8698 19.8392 21.242 18.116C22.2495 17.4069 23.0837 16.4792 23.6822 15.4022C24.2806 14.3253 24.6279 13.1271 24.698 11.897V11.884C24.7009 10.6547 24.4261 9.44056 23.8939 8.33234C23.3618 7.22413 22.5862 6.25044 21.625 5.48401C19.3651 3.62606 16.5414 2.59022 13.616 2.54601L13.615 2.54301Z" fill="white"/>
</svg>
