<svg width="25" height="24" viewBox="0 0 25 24" fill="none" xmlns="http://www.w3.org/2000/svg">
<path d="M7.621 8.79397H7.633M12.517 8.79397H12.529M17.413 8.79397H17.425M8.845 16.139H3.945C3.2961 16.1382 2.67406 15.8798 2.21559 15.4206C1.75712 14.9613 1.49973 14.3389 1.5 13.69V3.89697C1.5 3.24772 1.75791 2.62507 2.217 2.16598C2.67609 1.70689 3.29875 1.44897 3.948 1.44897H21.086C21.7353 1.44897 22.3579 1.70689 22.817 2.16598C23.2761 2.62507 23.534 3.24772 23.534 3.89697V13.69C23.534 14.3392 23.2761 14.9619 22.817 15.421C22.3579 15.8801 21.7353 16.138 21.086 16.138H14.966L8.845 22.259V16.139Z" stroke="white" stroke-width="2" stroke-linecap="round" stroke-linejoin="round"/>
</svg>
