<svg width="30" height="30" viewBox="0 0 30 30" fill="none" xmlns="http://www.w3.org/2000/svg">
<path d="M1.34403 18.929L19.2 1.07303C19.3089 0.964123 19.4381 0.877725 19.5803 0.818779C19.7226 0.759832 19.8751 0.729492 20.029 0.729492C20.183 0.729492 20.3355 0.759832 20.4777 0.818779C20.62 0.877725 20.7492 0.964123 20.858 1.07303L23.218 3.42903C23.279 3.48951 23.3165 3.56975 23.3236 3.65535C23.3308 3.74094 23.3071 3.82628 23.257 3.89603C22.9986 4.32908 22.892 4.83597 22.9541 5.33643C23.0163 5.83688 23.2436 6.30232 23.6 6.65903C23.9587 7.01771 24.4277 7.24528 24.9314 7.30514C25.4351 7.36499 25.9443 7.25366 26.377 6.98903C26.4466 6.94671 26.5283 6.92894 26.6092 6.93855C26.69 6.94815 26.7653 6.98459 26.823 7.04203L29.184 9.40303C29.2929 9.51187 29.3793 9.64111 29.4383 9.78335C29.4972 9.9256 29.5276 10.0781 29.5276 10.232C29.5276 10.386 29.4972 10.5385 29.4383 10.6807C29.3793 10.823 29.2929 10.9522 29.184 11.061L11.33 28.916C11.2212 29.0249 11.092 29.1113 10.9497 29.1703C10.8075 29.2292 10.655 29.2596 10.501 29.2596C10.3471 29.2596 10.1946 29.2292 10.0523 29.1703C9.9101 29.1113 9.78087 29.0249 9.67203 28.916L7.32703 26.571C7.26503 26.5091 7.22737 26.4269 7.22095 26.3395C7.21452 26.2522 7.23975 26.1654 7.29203 26.095C7.57082 25.6628 7.69458 25.1488 7.64303 24.637C7.58862 24.1199 7.35831 23.6371 6.99062 23.2694C6.62294 22.9018 6.14016 22.6714 5.62303 22.617C5.10371 22.5642 4.58207 22.6921 4.14603 22.979C4.07629 23.0254 3.99263 23.0462 3.9093 23.0378C3.82597 23.0294 3.74812 22.9924 3.68903 22.933L1.34403 20.586C1.23512 20.4772 1.14872 20.348 1.08977 20.2057C1.03083 20.0635 1.00049 19.911 1.00049 19.757C1.00049 19.6031 1.03083 19.4506 1.08977 19.3084C1.14872 19.1661 1.23512 19.0369 1.34403 18.928V18.929ZM19.714 1.58803L1.85903 19.443C1.77724 19.5269 1.73146 19.6394 1.73146 19.7565C1.73146 19.8737 1.77724 19.9862 1.85903 20.07L4.00703 22.218C4.52653 21.947 5.11405 21.834 5.69703 21.893C6.18293 21.9428 6.64924 22.1108 7.05519 22.3825C7.46114 22.6541 7.79436 23.021 8.02572 23.4512C8.25709 23.8813 8.37955 24.3616 8.38239 24.8501C8.38523 25.3385 8.26837 25.8202 8.04203 26.253L10.19 28.401C10.2739 28.4828 10.3864 28.5286 10.5035 28.5286C10.6207 28.5286 10.7332 28.4828 10.817 28.401L28.672 10.546C28.7538 10.4622 28.7996 10.3497 28.7996 10.2325C28.7996 10.1154 28.7538 10.0029 28.672 9.91903L26.5 7.75003C25.9403 8.02332 25.3091 8.11502 24.6947 8.01233C24.0803 7.90964 23.5133 7.61768 23.0729 7.17721C22.6324 6.73674 22.3404 6.16973 22.2377 5.55533C22.135 4.94094 22.2267 4.3098 22.5 3.75003L20.341 1.58803C20.2998 1.54715 20.251 1.51481 20.1973 1.49284C20.1436 1.47088 20.0861 1.45973 20.028 1.46003C19.9699 1.45917 19.9122 1.47006 19.8585 1.49205C19.8047 1.51405 19.7559 1.5467 19.715 1.58803H19.714ZM6.86503 17.783L15.774 8.87403C16.0198 8.63026 16.3519 8.49347 16.698 8.49347C17.0442 8.49347 17.3763 8.63026 17.622 8.87403L21.722 12.974C21.9658 13.2198 22.1026 13.5519 22.1026 13.898C22.1026 14.2442 21.9658 14.5763 21.722 14.822L12.809 23.729C12.5633 23.9728 12.2312 24.1096 11.885 24.1096C11.5389 24.1096 11.2068 23.9728 10.961 23.729L6.86503 19.629C6.7437 19.5078 6.64757 19.3637 6.58218 19.2051C6.51679 19.0465 6.48343 18.8766 6.48403 18.705C6.48394 18.3582 6.62088 18.0254 6.86503 17.779V17.783ZM16.292 9.38903L7.38003 18.299C7.27297 18.408 7.21298 18.5547 7.21298 18.7075C7.21298 18.8603 7.27297 19.007 7.38003 19.116L11.48 23.216C11.589 23.3231 11.7357 23.3831 11.8885 23.3831C12.0413 23.3831 12.188 23.3231 12.297 23.216L21.2 14.303C21.3071 14.194 21.3671 14.0473 21.3671 13.8945C21.3671 13.7417 21.3071 13.595 21.2 13.486L17.107 9.38603C17.0534 9.3323 16.9898 9.28968 16.9197 9.26059C16.8496 9.23151 16.7744 9.21653 16.6985 9.21653C16.6226 9.21653 16.5475 9.23151 16.4774 9.26059C16.4073 9.28968 16.3436 9.3323 16.29 9.38603L16.292 9.38903Z" fill="white" stroke="white" stroke-width="0.8"/>
</svg>
