<svg width="68" height="92" viewBox="0 0 68 92" fill="none" xmlns="http://www.w3.org/2000/svg">
<path fill-rule="evenodd" clip-rule="evenodd" d="M5 90.5909C6.15072 90.6525 7.29627 90.3972 8.312 89.8529C8.797 89.4429 9.039 88.453 9.039 86.817V67.9449C9.039 66.3859 8.796 65.3199 8.312 64.9089C7.30814 64.3269 6.1595 64.0421 5 64.0879V63.3499H17.361V64.0879C16.2028 64.0549 15.0576 64.3388 14.049 64.9089C13.564 65.3189 13.322 66.3859 13.322 67.9449V86.8159C13.322 88.4569 13.564 89.4419 14.049 89.8519C15.0688 90.3851 16.2113 90.6397 17.361 90.5899V91.4099H5V90.5909ZM18.492 90.5909C19.5562 90.5984 20.5979 90.2848 21.481 89.6909C21.881 89.1979 22.127 88.0499 22.127 86.2449V67.9449C22.127 66.3859 21.884 65.4839 21.401 64.9909C21.001 64.4989 20.027 64.2529 18.493 64.0909V63.3499H30.045C32.1034 63.2646 34.1593 63.57 36.104 64.2499C37.4666 64.6816 38.6487 65.5508 39.4669 66.7228C40.285 67.8948 40.6935 69.3041 40.629 70.7319C40.6913 71.6404 40.541 72.5508 40.1902 73.3911C39.8394 74.2314 39.2977 74.9784 38.608 75.5729C37.0148 76.8157 35.1183 77.6098 33.115 77.8729L41.678 88.6209C42.1488 89.1603 42.6923 89.6315 43.293 90.0209C43.9169 90.3562 44.6061 90.552 45.313 90.595V91.415H38.608L28.67 78.3649L26.327 78.4469V86.8159C26.327 88.3746 26.5693 89.3593 27.054 89.7699C27.9704 90.3486 29.0412 90.6346 30.124 90.5899V91.4099H18.492V90.5899V90.5909ZM32.792 75.905C30.6931 76.5285 28.5183 76.86 26.329 76.89V66.39C26.329 65.734 26.491 65.4049 26.729 65.2419C26.972 64.9949 27.698 64.9139 28.911 64.9139C30.3479 64.853 31.7809 65.1048 33.111 65.6519C34.0682 66.0699 34.8708 66.7765 35.4067 67.673C35.9426 68.5695 36.185 69.611 36.1 70.6519C36.1928 71.7678 35.9203 72.8837 35.3234 73.831C34.7265 74.7784 33.8376 75.506 32.791 75.904L32.792 75.905Z" fill="black"/>
<path fill-rule="evenodd" clip-rule="evenodd" d="M44.4258 82.9579C44.9784 84.5859 45.7972 86.1109 46.8488 87.4709C47.5923 88.4046 48.5392 89.1561 49.6174 89.668C50.6955 90.18 51.8764 90.4389 53.0698 90.4249C54.3155 90.4565 55.5272 90.0169 56.4628 89.1939C56.9794 88.751 57.3867 88.1948 57.653 87.5686C57.9192 86.9424 58.0372 86.2632 57.9978 85.5839C58.013 84.9077 57.8839 84.236 57.6192 83.6135C57.3545 82.9911 56.9603 82.4321 56.4628 81.9739C55.239 80.8314 53.8826 79.8397 52.4228 79.0199L48.8678 76.8049C47.9365 76.2175 47.0945 75.4991 46.3678 74.6719C45.2195 73.4841 44.5816 71.894 44.5908 70.2419C44.5553 69.2564 44.7235 68.2741 45.0848 67.3565C45.4462 66.4389 45.9929 65.6057 46.6908 64.9089C47.4241 64.1903 48.2973 63.6302 49.2562 63.2632C50.2151 62.8963 51.2391 62.7304 52.2648 62.7759C53.4288 62.8327 54.5754 63.0821 55.6578 63.5139C56.3937 63.8122 57.1496 64.0588 57.9198 64.2519C58.1268 64.2684 58.335 64.2403 58.5302 64.1696C58.7255 64.0989 58.9033 63.9871 59.0518 63.8419C59.2608 63.5194 59.3973 63.1553 59.4518 62.7749H60.3408L61.2288 71.7999H60.2598C59.6138 69.0929 58.4818 67.2059 56.9478 66.1389C55.6779 65.1346 54.1217 64.56 52.5038 64.4979C51.4101 64.4754 50.3462 64.855 49.5138 65.5649C49.1127 65.907 48.795 66.3361 48.585 66.8197C48.3749 67.3032 48.2781 67.8283 48.3018 68.3549C48.2609 69.3739 48.6071 70.3706 49.2708 71.1449C50.1272 72.1452 51.1363 73.0038 52.2608 73.6889L55.9768 75.9039C57.7898 76.9864 59.4247 78.3424 60.8238 79.9239C61.8865 81.4142 62.3592 83.2455 62.1505 85.064C61.9418 86.8825 61.0665 88.5591 59.6938 89.7699C57.9566 91.2907 55.7005 92.0839 53.3938 91.9849C52.0148 91.9719 50.6483 91.7222 49.3538 91.2469C48.5634 90.9474 47.754 90.7008 46.9308 90.5089C46.7384 90.4852 46.5433 90.5195 46.3705 90.6073C46.1977 90.6952 46.0551 90.8325 45.9608 91.0019C45.7576 91.2908 45.6452 91.6338 45.6378 91.9869H44.6678L43.4558 82.9619H44.4248L44.4258 82.9579Z" fill="black"/>
<path fill-rule="evenodd" clip-rule="evenodd" d="M44.0319 0.728027C55.5389 3.09703 63.4689 6.88703 64.2459 8.15003C65.1789 9.72903 65.6459 11.624 66.5789 18.888C67.1649 24.5532 67.3727 30.2512 67.2009 35.944C67.0449 42.103 66.7339 48.893 65.9569 50.788C65.6459 51.42 63.0029 54.104 61.2919 54.578C62.3307 48.6807 62.9543 42.7177 63.1579 36.733C63.5402 29.5081 63.2278 22.2632 62.2249 15.098C61.9405 13.4705 61.4707 11.8808 60.8249 10.36C60.2029 9.41203 51.0249 5.93803 45.5859 4.83303C44.7203 5.78241 43.9879 6.84516 43.4089 7.99203C43.0979 8.93903 47.7629 14.309 48.0739 14.783C48.6959 13.046 47.4519 8.94003 46.8299 8.46603C47.6069 8.15103 50.4069 7.83403 50.8729 8.46603C50.8729 8.62403 51.9609 9.25603 52.4279 14.625C55.6939 14.467 55.3829 15.414 56.0049 15.888C56.3159 14.625 56.6269 12.571 55.5389 11.466C58.6479 11.308 59.2699 11.308 59.8929 12.566C60.2049 13.356 60.5149 15.883 59.1159 19.672C62.6929 21.572 62.0699 21.572 62.0699 26.305C62.0991 29.9532 61.8393 33.5979 61.2929 37.205C60.8259 40.048 60.5149 42.732 60.0489 45.575C59.3721 49.3516 58.3305 53.0536 56.9389 56.629C56.7839 56.945 54.9179 57.577 52.5849 58.366C52.5849 56.945 54.1399 53.155 55.6949 44.311C56.4719 39.411 57.4049 34.678 57.4049 32.467C58.0269 25.045 58.1829 24.729 57.7159 20.781C57.5609 19.833 56.9389 19.517 56.0059 19.201C55.7711 20.172 55.4591 21.1227 55.0729 22.044C54.7796 22.8132 54.4154 23.5534 53.9849 24.255C55.3849 24.886 56.3169 25.992 56.3169 26.94C56.3169 31.045 54.2959 41.468 53.0509 45.574C52.4517 47.568 51.7249 49.5214 50.8749 51.422C49.6709 51.9128 48.4206 52.2813 47.1429 52.522C47.6089 49.68 49.6309 45.1 52.1189 29.94C52.5849 26.94 53.3629 24.097 51.1859 23.307C51.0299 25.992 48.3859 37.046 46.6769 40.836C46.3649 40.678 43.4109 39.572 43.2559 39.415C43.1009 39.258 39.5239 26.622 37.6579 17.307C35.7919 17.149 31.5939 16.517 31.2829 18.255H34.5489C34.1116 18.5395 33.7406 18.9146 33.4609 19.355C34.7049 19.513 35.4819 21.255 36.1049 23.619L31.9049 23.777C32.2169 23.777 32.5269 24.092 32.6819 24.877V38.152H41.0819L48.2349 57.734C44.9689 59.471 41.3929 60.576 39.2159 60.576C37.0389 60.576 31.5959 57.734 30.9749 57.734C30.1969 57.734 24.7549 60.576 22.5749 60.576C20.3949 60.576 16.8219 59.312 13.5559 57.734L20.7099 38.152H29.1099V24.258C28.9549 23.942 28.9549 23.784 28.4879 23.626C27.5549 23.626 24.7559 23.468 24.2879 24.573C23.6659 23.152 22.7329 20.309 23.5099 18.888C23.8219 18.257 25.3759 17.309 28.6419 17.309C29.4189 13.677 34.2419 13.993 41.2419 14.625C41.1385 14.9322 41.1385 15.2648 41.2419 15.572C42.4859 22.205 45.2839 32.472 45.2839 32.627C46.3719 27.732 47.9279 22.363 46.9939 20.152C46.5279 18.888 45.5939 18.099 42.4849 13.993C40.7749 11.782 39.0639 9.57103 39.2199 8.78203C39.3759 7.99303 39.3669 5.93903 44.0319 0.728027Z" fill="black"/>
<path fill-rule="evenodd" clip-rule="evenodd" d="M28.016 1.35976C30.8154 0.403119 33.7681 -0.025477 36.724 0.0957632C35.947 2.46476 32.837 7.04476 29.567 8.62176C27.857 9.56876 24.28 10.2008 22.103 10.8318C19.615 11.6218 15.572 12.8848 12.618 15.2538C10.597 16.8328 9.66397 19.0438 9.81797 22.2028C12.352 19.7593 15.3718 17.8762 18.681 16.6758C17.904 19.5178 18.059 21.8868 16.971 24.5758C16.349 26.3128 11.684 30.2618 10.441 32.4758C9.34009 34.3277 8.95286 36.5177 9.35197 38.6348C9.96618 37.7469 10.6415 36.9028 11.373 36.1088C13.1498 34.3661 15.0747 32.7812 17.126 31.3718C16.9554 34.8164 16.5414 38.2446 15.887 41.6308C15.265 43.8418 11.378 47.7898 10.287 49.0528C10.287 49.0528 11.375 52.0528 11.997 53.9528C12.619 55.6898 12.93 56.9528 12.93 56.9528C11.53 56.4788 5.30997 53.7948 3.44497 51.8998C1.11197 49.5308 0.956973 46.9998 0.644973 44.3198C0.276542 41.8619 0.0684362 39.3827 0.0219727 36.8978C1.85833 38.0976 3.531 39.5309 4.99797 41.1618C6.17094 42.4602 7.26268 43.8298 8.26697 45.2628C8.14364 44.5194 7.98797 43.7824 7.79997 43.0518C7.64497 41.3148 8.73297 40.0518 8.57797 39.7358L7.95597 38.4718C7.02297 36.4218 2.51397 33.2608 1.26697 31.2078C0.800973 30.4178 -0.443027 28.3658 0.333973 18.7318C0.333973 18.7318 3.90997 22.5218 5.77597 24.8908C6.72094 26.1865 7.55426 27.5601 8.26697 28.9968C7.99412 27.2212 8.26499 25.4045 9.04397 23.7858C8.93372 23.0046 8.66963 22.2531 8.26697 21.5748C6.55697 18.5748 2.66697 16.9948 2.04697 13.3628C1.57997 10.6778 2.82397 8.46276 9.04697 5.94076C10.291 10.2048 9.51297 13.9948 9.35797 17.4688C12.468 14.9418 12.002 8.30976 13.558 5.94076C14.025 4.99276 14.802 4.04077 16.979 3.09877C18.7263 2.32863 20.5506 1.74636 22.421 1.36177C21.9283 3.5211 21.2522 5.63444 20.4 7.67876C19.7545 8.99836 18.8565 10.1786 17.757 11.1528C20.1409 10.5996 22.2091 9.12567 23.51 7.05276C24.133 6.26276 24.754 5.31576 25.376 4.36776C25.8968 3.09948 26.8287 2.04296 28.022 1.36776L28.016 1.35976Z" fill="black"/>
<path fill-rule="evenodd" clip-rule="evenodd" d="M50.874 14.941C53.051 14.626 52.118 18.731 51.496 20.31C50.7212 18.5588 49.7283 16.9125 48.541 15.41C49.2978 15.1635 50.0808 15.0061 50.874 14.941ZM28.327 19.678C30.815 19.52 32.992 19.52 33.147 21.731H26.927C26.46 20.152 26.927 19.836 28.327 19.678ZM22.573 43.84L26.46 56.157C25.1709 56.3312 23.8734 56.4366 22.573 56.473C21.1686 56.4382 19.7669 56.3328 18.373 56.157L22.573 43.84ZM39.211 43.84L43.411 56.157C42.0172 56.3328 40.6155 56.4383 39.211 56.473C37.811 56.473 35.323 56.157 35.323 56.157L39.211 43.84ZM29.104 41.94V45.256C29.104 45.256 29.104 45.572 29.259 45.572C29.726 45.888 29.881 45.888 29.881 45.888L32.681 46.678V41.945H36.257L30.815 57.263L25.528 41.945H29.104V41.94Z" fill="white"/>
</svg>
